<?xml version="1.0" encoding="utf-8"?>
<!-- Generator: Adobe Illustrator 27.5.0, SVG Export Plug-In . SVG Version: 6.00 Build 0)  -->
<svg version="1.1" id="Ñëîé_1" xmlns="http://www.w3.org/2000/svg" xmlns:xlink="http://www.w3.org/1999/xlink" x="0px" y="0px"
	 viewBox="0 0 2800 2000" style="enable-background:new 0 0 2800 2000;" xml:space="preserve">
<rect id="_x31_3" style="fill:#FFFFFF;" width="2800" height="2000"/>
<g>
	<path id="_x31_2" style="fill:#A2C3F2;" d="M1233.707,201.893c2.105,0,4.167,0.18,6.179,0.511
		c-0.192-1.544-0.302-3.113-0.302-4.709c0-20.863,16.913-37.776,37.775-37.776c13.152,0,24.729,6.725,31.494,16.92
		c2.767-18.136,18.432-32.03,37.341-32.03c20.863,0,37.776,16.913,37.776,37.776c0,3.81-0.57,7.486-1.619,10.954
		c0.537-0.023,1.076-0.041,1.619-0.041c20.863,0,37.776,16.913,37.776,37.776c0,20.863-16.913,37.775-37.776,37.775
		c-8.145,0-15.682-2.587-21.852-6.971c-8.375,17.527-26.264,29.636-46.984,29.636c-22.166,0-41.083-13.863-48.587-33.387
		c-6.499,11.414-18.767,19.116-32.841,19.116c-20.863,0-37.775-16.913-37.775-37.776
		C1195.931,218.806,1212.844,201.893,1233.707,201.893z"/>
	<path id="_x31_1" style="fill:#A2C3F2;" d="M337.16,1878.195c0,0-136.075-278.824-166.713-541.67
		c-27.688-237.539-8.957-574.442,105.425-770.25s457.069-465.273,780.02-84.807c275.009,323.985,530.72,1.774,853.196-212.658
		c275.527-183.214,481.006-100.931,609.507,236.531c214.468,563.22-70.469,1373.519-70.469,1373.519L337.16,1878.195z"/>
	<g id="_x31_0">
		<rect x="393" y="678.024" style="fill:#305777;" width="10" height="421"/>
		<rect x="342.5" y="756.024" style="fill:#3E8EDD;" width="111" height="265"/>
		<rect x="629.286" y="534.31" style="fill:#305777;" width="10" height="421"/>
		<rect x="578.786" y="612.31" style="fill:#3E8EDD;" width="111" height="265"/>
		<rect x="865.571" y="749.881" style="fill:#305777;" width="10" height="421"/>
		<rect x="815.071" y="827.881" style="fill:#3E8EDD;" width="111" height="265"/>
		<rect x="1101.857" y="606.167" style="fill:#305777;" width="10" height="421"/>
		<rect x="1051.357" y="684.167" style="fill:#3E8EDD;" width="111" height="265"/>
		<rect x="1338.143" y="390.596" style="fill:#305777;" width="10" height="421"/>
		<rect x="1287.643" y="468.596" style="fill:#3E8EDD;" width="111" height="265"/>
		<rect x="1574.429" y="246.881" style="fill:#305777;" width="10" height="421"/>
		<rect x="1523.929" y="324.881" style="fill:#3E8EDD;" width="111" height="265"/>
		<rect x="1810.714" y="462.453" style="fill:#305777;" width="10" height="421"/>
		<rect x="1760.214" y="540.453" style="fill:#3E8EDD;" width="111" height="265"/>
		<rect x="2047" y="318.738" style="fill:#305777;" width="10" height="421"/>
		<rect x="1996.5" y="396.738" style="fill:#3E8EDD;" width="111" height="265"/>
	</g>
	<g id="_x39_">
		
			<ellipse transform="matrix(0.7071 -0.7071 0.7071 0.7071 -36.9182 781.0344)" style="fill:#FFB12A;" cx="924.333" cy="435.081" rx="156.455" ry="156.455"/>
		<path style="fill:#FACE6C;" d="M924.234,569.706c-69.074,0-128.016-53.052-134.027-123.117
			c-6.344-73.958,48.663-139.288,122.62-145.633c73.957-6.338,139.288,48.663,145.633,122.62
			c6.345,73.957-48.662,139.288-122.619,145.633C931.949,569.541,928.07,569.706,924.234,569.706z M924.428,306.483
			c-3.669,0-7.366,0.157-11.087,0.476c-70.647,6.06-123.192,68.467-117.131,139.114c5.742,66.926,62.051,117.606,128.029,117.607
			c3.669,0,7.364-0.156,11.086-0.476c70.647-6.061,123.192-68.467,117.131-139.114
			C1046.714,357.164,990.405,306.483,924.428,306.483z"/>
		<path style="fill:#FACE6C;" d="M984.036,464.804c-2.043-23.814-17.181-38.11-47.964-46.7
			c-22.56-6.378-32.296-10.308-33.214-21.008c-0.739-8.614,6.519-16.97,23.106-18.393c7.887-0.676,14.887-0.15,20.801,0.87
			c8.505,1.467,16.592-4.214,18.165-12.7l0,0c1.606-8.662-4.162-17.067-12.861-18.459c-5.979-0.957-12.767-1.447-20.454-1.225
			l-0.019-0.222c-0.745-8.684-8.389-15.12-17.073-14.375l0,0c-8.684,0.745-15.12,8.389-14.375,17.073l0.257,2.991
			c-24.706,9.085-37.844,28.575-35.92,51.001c2.111,24.607,21.789,38.345,50.748,45.901c20.777,5.376,29.336,10.783,30.224,21.128
			c0.951,11.087-7.7,19.145-25.193,20.646c-9.255,0.794-18.51-0.092-26.712-1.84c-9.045-1.927-17.854,4.098-19.277,13.236l0,0
			c-1.331,8.549,4.349,16.572,12.835,18.26c8.21,1.633,17.997,2.574,27.927,2.226l0.013,0.156
			c0.745,8.684,8.389,15.12,17.073,14.375l0,0c8.684-0.745,15.12-8.389,14.375-17.073l-0.258-3.004
			C974.162,507.923,985.943,487.039,984.036,464.804z"/>
	</g>
	<g id="_x38_">
		<circle style="fill:#FFB12A;" cx="2358.779" cy="347.521" r="157.742"/>
		<path style="fill:#FACE6C;" d="M2333.154,480.811c-68.399-13.097-116.707-76.807-109.374-147.329
			c7.741-74.438,74.599-128.701,149.036-120.96c74.437,7.747,128.7,74.599,120.96,149.037
			c-7.741,74.438-74.598,128.701-149.036,120.96C2340.825,482.112,2336.953,481.539,2333.154,480.811z M2383.257,220.196
			c-3.633-0.696-7.323-1.242-11.069-1.631c-71.106-7.395-134.971,44.439-142.366,115.546
			c-7.004,67.361,39.146,128.223,104.478,140.735c3.633,0.696,7.322,1.241,11.068,1.631c71.106,7.394,134.971-44.44,142.365-115.546
			C2494.74,293.569,2448.591,232.706,2383.257,220.196z"/>
		<path style="fill:#FACE6C;" d="M2412.263,388.274c2.492-23.969-9.787-40.995-38.64-55.338
			c-21.13-10.593-30.026-16.331-28.906-27.101c0.902-8.671,9.673-15.568,26.368-13.832c7.938,0.826,14.77,2.674,20.433,4.805
			c8.144,3.065,17.229-1.027,20.396-9.132l0,0c3.233-8.273-0.885-17.69-9.236-20.718c-5.739-2.081-12.368-3.853-20.022-5.091
			l0.023-0.224c0.909-8.741-5.44-16.563-14.18-17.472l0,0c-8.74-0.909-16.563,5.44-17.472,14.18l-0.313,3.011
			c-26.187,4.311-42.893,21.12-45.24,43.692c-2.575,24.767,14.305,42.102,41.549,55.075c19.554,9.263,27.005,16.24,25.922,26.652
			c-1.16,11.159-11.255,17.498-28.862,15.667c-9.315-0.969-18.311-3.601-26.102-6.887c-8.591-3.623-18.457,0.672-21.598,9.452l0,0
			c-2.939,8.214,1.164,17.235,9.248,20.515c7.821,3.174,17.333,5.961,27.232,7.5l-0.016,0.157
			c-0.909,8.741,5.44,16.563,14.18,17.472l0,0c8.741,0.909,16.563-5.44,17.472-14.18l0.314-3.024
			C2394.31,429.1,2409.936,410.653,2412.263,388.274z"/>
	</g>
	<g id="_x37_">
		
			<ellipse transform="matrix(0.9801 -0.1987 0.1987 0.9801 -81.2823 91.6933)" style="fill:#FFB12A;" cx="416.118" cy="450.745" rx="93.293" ry="93.293"/>
		<path style="fill:#FACE6C;" d="M418.84,530.974c-41.163,1.427-77.385-28.971-82.415-70.601
			c-5.309-43.943,26.122-84.012,70.065-89.321c43.943-5.305,84.011,26.122,89.321,70.065c5.309,43.942-26.122,84.012-70.064,89.321
			C423.435,530.717,421.126,530.895,418.84,530.974z M413.518,374.107c-2.186,0.076-4.386,0.246-6.597,0.513
			c-41.976,5.071-72,43.347-66.928,85.322c4.804,39.765,39.408,68.803,78.726,67.441c2.186-0.076,4.385-0.245,6.597-0.513
			c41.976-5.071,72-43.347,66.928-85.322C487.44,401.783,452.836,372.744,413.518,374.107z"/>
		<path style="fill:#FACE6C;" d="M452.311,467.224c-1.709-14.15-11.026-22.356-29.548-26.839
			c-13.576-3.335-19.459-5.476-20.228-11.833c-0.618-5.118,3.534-10.248,13.39-11.438c4.686-0.566,8.868-0.397,12.414,0.089
			c5.099,0.698,9.8-2.854,10.563-7.944l0,0c0.778-5.195-2.833-10.085-8.046-10.735c-3.583-0.447-7.638-0.598-12.215-0.307
			l-0.016-0.132c-0.623-5.16-5.311-8.837-10.471-8.214l0,0c-5.16,0.623-8.837,5.311-8.214,10.471l0.215,1.777
			c-14.535,5.924-21.962,17.811-20.352,31.135c1.766,14.62,13.777,22.401,31.19,26.306c12.493,2.775,17.705,5.82,18.448,11.966
			c0.796,6.587-4.193,11.568-14.587,12.824c-5.499,0.664-11.032,0.328-15.957-0.544c-5.43-0.962-10.555,2.811-11.214,8.286l0,0
			c-0.617,5.122,2.934,9.786,8.026,10.617c4.927,0.803,10.778,1.162,16.689,0.749l0.011,0.093c0.623,5.16,5.312,8.837,10.471,8.214
			l0,0c5.16-0.623,8.837-5.311,8.214-10.471l-0.216-1.785C447.318,493.125,453.907,480.435,452.311,467.224z"/>
	</g>
	<g id="_x36_">
		<polygon style="fill:#FF593A;" points="2627.72,567.751 2166.092,670.396 2311.531,738.506 1840.475,1065.433 1567.591,805.591 
			840.87,1349.88 565.423,1119.508 243.957,1369.295 293.043,1432.467 563.577,1222.255 838.131,1451.882 1561.409,910.171 
			1832.525,1168.33 2357.14,804.231 2370.049,964.269 		"/>
		<path style="fill:#F1F3F2;" d="M254.963,1384.959c-0.446,0-0.887-0.197-1.183-0.576c-0.51-0.652-0.395-1.595,0.258-2.105
			l309.49-242.067c0.56-0.438,1.35-0.423,1.892,0.035l276.137,233.068l722.227-539.506c0.585-0.437,1.398-0.39,1.93,0.113
			l274.741,260.607l487.929-339.388c0.679-0.473,1.615-0.305,2.088,0.375c0.473,0.68,0.305,1.615-0.375,2.088l-488.932,340.085
			c-0.584,0.405-1.373,0.346-1.889-0.144l-274.71-260.577l-722.169,539.463c-0.558,0.418-1.332,0.396-1.865-0.056l-276.116-233.051
			l-308.53,241.316C255.612,1384.855,255.287,1384.959,254.963,1384.959z"/>
		<path style="fill:#F1F3F2;" d="M2191.07,683.594c-0.687,0-1.307-0.475-1.463-1.172c-0.181-0.808,0.327-1.61,1.136-1.792
			l424.146-95.104c0.808-0.181,1.611,0.328,1.792,1.136c0.181,0.808-0.327,1.61-1.136,1.792l-424.146,95.104
			C2191.289,683.582,2191.179,683.594,2191.07,683.594z"/>
	</g>
	<g id="_x35_">
		<path style="fill:#FFB12A;" d="M868.077,1795.861H493.858c-11.259,0-20.385-9.127-20.385-20.385v-1.469
			c0-11.259,9.127-20.385,20.385-20.385h374.219c11.259,0,20.385,9.127,20.385,20.385v1.469
			C888.462,1786.735,879.336,1795.861,868.077,1795.861z"/>
		<rect x="504.523" y="1753.621" style="fill:#FACE6C;" width="4.849" height="42.24"/>
		<rect x="533.527" y="1753.621" style="fill:#FACE6C;" width="4.849" height="42.24"/>
		<rect x="562.53" y="1753.621" style="fill:#FACE6C;" width="4.849" height="42.24"/>
		<rect x="591.533" y="1753.621" style="fill:#FACE6C;" width="4.849" height="42.24"/>
		<rect x="620.536" y="1753.621" style="fill:#FACE6C;" width="4.849" height="42.24"/>
		<rect x="649.54" y="1753.621" style="fill:#FACE6C;" width="4.849" height="42.24"/>
		<rect x="678.543" y="1753.621" style="fill:#FACE6C;" width="4.849" height="42.24"/>
		<rect x="707.546" y="1753.621" style="fill:#FACE6C;" width="4.849" height="42.24"/>
		<rect x="736.549" y="1753.621" style="fill:#FACE6C;" width="4.849" height="42.24"/>
		<rect x="765.553" y="1753.621" style="fill:#FACE6C;" width="4.849" height="42.24"/>
		<rect x="794.556" y="1753.621" style="fill:#FACE6C;" width="4.849" height="42.24"/>
		<rect x="823.559" y="1753.621" style="fill:#FACE6C;" width="4.849" height="42.24"/>
		<rect x="852.563" y="1753.621" style="fill:#FACE6C;" width="4.849" height="42.24"/>
		<path style="fill:#FFB12A;" d="M853.767,1753.621H479.548c-11.259,0-20.385-9.127-20.385-20.385v-1.469
			c0-11.259,9.127-20.385,20.385-20.385h374.219c11.258,0,20.385,9.127,20.385,20.385v1.469
			C874.152,1744.495,865.026,1753.621,853.767,1753.621z"/>
		<rect x="490.213" y="1711.381" style="fill:#FACE6C;" width="4.849" height="42.24"/>
		<rect x="519.217" y="1711.381" style="fill:#FACE6C;" width="4.849" height="42.24"/>
		<rect x="548.22" y="1711.381" style="fill:#FACE6C;" width="4.849" height="42.24"/>
		<rect x="577.223" y="1711.381" style="fill:#FACE6C;" width="4.849" height="42.24"/>
		<rect x="606.226" y="1711.381" style="fill:#FACE6C;" width="4.849" height="42.24"/>
		<rect x="635.23" y="1711.381" style="fill:#FACE6C;" width="4.849" height="42.24"/>
		<rect x="664.233" y="1711.381" style="fill:#FACE6C;" width="4.849" height="42.24"/>
		<rect x="693.236" y="1711.381" style="fill:#FACE6C;" width="4.849" height="42.24"/>
		<rect x="722.24" y="1711.381" style="fill:#FACE6C;" width="4.849" height="42.24"/>
		<rect x="751.243" y="1711.381" style="fill:#FACE6C;" width="4.849" height="42.24"/>
		<rect x="780.246" y="1711.381" style="fill:#FACE6C;" width="4.849" height="42.24"/>
		<rect x="809.249" y="1711.381" style="fill:#FACE6C;" width="4.849" height="42.24"/>
		<rect x="838.253" y="1711.381" style="fill:#FACE6C;" width="4.849" height="42.24"/>
		<path style="fill:#FFB12A;" d="M868.077,1880.342H493.858c-11.259,0-20.385-9.127-20.385-20.385v-1.469
			c0-11.258,9.127-20.385,20.385-20.385h374.219c11.259,0,20.385,9.127,20.385,20.385v1.469
			C888.462,1871.215,879.336,1880.342,868.077,1880.342z"/>
		<rect x="504.523" y="1838.102" style="fill:#FACE6C;" width="4.849" height="42.24"/>
		<rect x="533.527" y="1838.102" style="fill:#FACE6C;" width="4.849" height="42.24"/>
		<rect x="562.53" y="1838.102" style="fill:#FACE6C;" width="4.849" height="42.24"/>
		<rect x="591.533" y="1838.102" style="fill:#FACE6C;" width="4.849" height="42.24"/>
		<rect x="620.536" y="1838.102" style="fill:#FACE6C;" width="4.849" height="42.24"/>
		<rect x="649.54" y="1838.102" style="fill:#FACE6C;" width="4.849" height="42.24"/>
		<rect x="678.543" y="1838.102" style="fill:#FACE6C;" width="4.849" height="42.24"/>
		<rect x="707.546" y="1838.102" style="fill:#FACE6C;" width="4.849" height="42.24"/>
		<rect x="736.549" y="1838.102" style="fill:#FACE6C;" width="4.849" height="42.24"/>
		<rect x="765.553" y="1838.102" style="fill:#FACE6C;" width="4.849" height="42.24"/>
		<rect x="794.556" y="1838.102" style="fill:#FACE6C;" width="4.849" height="42.24"/>
		<rect x="823.559" y="1838.102" style="fill:#FACE6C;" width="4.849" height="42.24"/>
		<rect x="852.563" y="1838.102" style="fill:#FACE6C;" width="4.849" height="42.24"/>
		<path style="fill:#FFB12A;" d="M824.764,1838.102H450.545c-11.259,0-20.385-9.127-20.385-20.385v-1.469
			c0-11.258,9.127-20.385,20.385-20.385h374.219c11.259,0,20.385,9.127,20.385,20.385v1.469
			C845.149,1828.975,836.022,1838.102,824.764,1838.102z"/>
		<rect x="461.21" y="1795.861" style="fill:#FACE6C;" width="4.849" height="42.24"/>
		<rect x="490.213" y="1795.861" style="fill:#FACE6C;" width="4.849" height="42.24"/>
		<rect x="519.217" y="1795.861" style="fill:#FACE6C;" width="4.849" height="42.24"/>
		<rect x="548.22" y="1795.861" style="fill:#FACE6C;" width="4.849" height="42.24"/>
		<rect x="577.223" y="1795.861" style="fill:#FACE6C;" width="4.849" height="42.24"/>
		<rect x="606.226" y="1795.861" style="fill:#FACE6C;" width="4.849" height="42.24"/>
		<rect x="635.23" y="1795.861" style="fill:#FACE6C;" width="4.849" height="42.24"/>
		<rect x="664.233" y="1795.861" style="fill:#FACE6C;" width="4.849" height="42.24"/>
		<rect x="693.236" y="1795.861" style="fill:#FACE6C;" width="4.849" height="42.24"/>
		<rect x="722.24" y="1795.861" style="fill:#FACE6C;" width="4.849" height="42.24"/>
		<rect x="751.243" y="1795.861" style="fill:#FACE6C;" width="4.849" height="42.24"/>
		<rect x="780.246" y="1795.861" style="fill:#FACE6C;" width="4.849" height="42.24"/>
		<rect x="809.249" y="1795.861" style="fill:#FACE6C;" width="4.849" height="42.24"/>
		<path style="fill:#FFB12A;" d="M810.723,1711.381H436.503c-11.258,0-20.385-9.127-20.385-20.385v-1.469
			c0-11.259,9.127-20.385,20.385-20.385h374.219c11.258,0,20.385,9.127,20.385,20.385v1.469
			C831.108,1702.255,821.981,1711.381,810.723,1711.381z"/>
		<rect x="447.169" y="1669.141" style="fill:#FACE6C;" width="4.849" height="42.24"/>
		<rect x="476.172" y="1669.141" style="fill:#FACE6C;" width="4.849" height="42.24"/>
		<rect x="505.175" y="1669.141" style="fill:#FACE6C;" width="4.849" height="42.24"/>
		<rect x="534.179" y="1669.141" style="fill:#FACE6C;" width="4.849" height="42.24"/>
		<rect x="563.182" y="1669.141" style="fill:#FACE6C;" width="4.849" height="42.24"/>
		<rect x="592.185" y="1669.141" style="fill:#FACE6C;" width="4.849" height="42.24"/>
		<rect x="621.189" y="1669.141" style="fill:#FACE6C;" width="4.849" height="42.24"/>
		<rect x="650.192" y="1669.141" style="fill:#FACE6C;" width="4.849" height="42.24"/>
		<rect x="679.195" y="1669.141" style="fill:#FACE6C;" width="4.849" height="42.24"/>
		<rect x="708.199" y="1669.141" style="fill:#FACE6C;" width="4.849" height="42.24"/>
		<rect x="737.202" y="1669.141" style="fill:#FACE6C;" width="4.849" height="42.24"/>
		<rect x="766.205" y="1669.141" style="fill:#FACE6C;" width="4.849" height="42.24"/>
		<rect x="795.208" y="1669.141" style="fill:#FACE6C;" width="4.849" height="42.24"/>
		<path style="fill:#FFB12A;" d="M828.931,1669.501H454.712c-11.258,0-20.385-9.127-20.385-20.385v-1.469
			c0-11.259,9.127-20.385,20.385-20.385h374.219c11.259,0,20.385,9.127,20.385,20.385v1.469
			C849.317,1660.374,840.19,1669.501,828.931,1669.501z"/>
		<rect x="465.378" y="1627.261" style="fill:#FACE6C;" width="4.849" height="42.24"/>
		<rect x="494.381" y="1627.261" style="fill:#FACE6C;" width="4.849" height="42.24"/>
		<rect x="523.384" y="1627.261" style="fill:#FACE6C;" width="4.849" height="42.24"/>
		<rect x="552.388" y="1627.261" style="fill:#FACE6C;" width="4.849" height="42.24"/>
		<rect x="581.391" y="1627.261" style="fill:#FACE6C;" width="4.849" height="42.24"/>
		<rect x="610.394" y="1627.261" style="fill:#FACE6C;" width="4.849" height="42.24"/>
		<rect x="639.397" y="1627.261" style="fill:#FACE6C;" width="4.849" height="42.24"/>
		<rect x="668.401" y="1627.261" style="fill:#FACE6C;" width="4.849" height="42.24"/>
		<rect x="697.404" y="1627.261" style="fill:#FACE6C;" width="4.849" height="42.24"/>
		<rect x="726.407" y="1627.261" style="fill:#FACE6C;" width="4.849" height="42.24"/>
		<rect x="755.411" y="1627.261" style="fill:#FACE6C;" width="4.849" height="42.24"/>
		<rect x="784.414" y="1627.261" style="fill:#FACE6C;" width="4.849" height="42.24"/>
		<rect x="813.417" y="1627.261" style="fill:#FACE6C;" width="4.849" height="42.24"/>
	</g>
	<g id="_x34_">
		<path style="fill:#F69D85;" d="M989.349,1782.653c2.045-0.496,4.475-1.972,6.401-3.048c11.423-6.382,16.367-18.375,9.985-29.797
			l-108.216-193.687c-4.741-8.485-14.182-13.214-23.817-11.928l-158.09,21.095c-12.974,1.73-22.081,13.647-20.351,26.618
			c1.73,12.97,13.648,22.082,26.618,20.351l142.128-18.965l100.361,179.629C969.675,1782.417,979.27,1785.098,989.349,1782.653z"/>
		<path style="fill:#30313C;" d="M648.152,1525.519c0,0,18.361,91.529,66.383,104.748c48.022,13.219,138.225-21.102,138.225-21.102
			l79.655,139.988c0,0,45.337-10.759,65.841-31.913c-10.515-29.319-54.459-152.796-96.895-179.304
			c-31.81-19.87-92.635-13.653-145.009-15.252C721.378,1521.617,648.152,1525.519,648.152,1525.519z"/>
		<path style="fill:#404660;" d="M1024.108,1743.629l4.385,11.151c0.381,0.97,0.896,1.856,1.532,2.634c0,0,0,0.001,0.001,0.001
			c0.671,0.827,1.46,1.53,2.35,2.095l14.46-10.123C1041.202,1737.924,1027.196,1742.46,1024.108,1743.629z"/>
		<path style="fill:#404D7F;" d="M966.628,1786.384c0.817,1.006,1.795,1.834,2.879,2.46c2.69,1.558,6.021,1.87,9.031,0.522
			l68.785-30.942c3.426-1.537,5.135-4.684,5.248-7.909c0.041-0.982-0.073-1.975-0.334-2.934c-0.779-2.878-2.872-5.435-6.196-6.511
			l-13.389-4.328l-14.39-4.652c-29.631,19.18-63.918,24.388-63.918,24.388l6.032,15.347l4.622,11.751
			C965.406,1784.621,965.958,1785.562,966.628,1786.384z"/>
		<path style="fill:#404D7F;" d="M1026.301,1734.689c0,0-20.346-6.69-26.051-7.909c-5.704-1.219-14.647,7.576-11.493,11.422
			s13.693,7.431,13.693,7.431L1026.301,1734.689z"/>
		<path style="fill:#606A97;" d="M1047.588,1759.016l-68.786,30.942c-4.374,1.958-9.588,0.656-12.679-3.167
			c-0.126-0.156-0.173-0.362-0.126-0.557c0.046-0.196,0.18-0.358,0.363-0.441l0,0l85.607-38.802
			c0.173-0.078,0.372-0.077,0.544,0.004c0.172,0.081,0.3,0.233,0.35,0.417c1.074,3.954-0.109,9.259-5.236,11.587
			C1047.613,1759.005,1047.6,1759.01,1047.588,1759.016z"/>
		<path style="fill:#606A97;" d="M1032.626,1736.628c0,0,18.08,1.798,20.211,10.67l-26.517,11.705
			C1026.32,1759.003,1022.366,1746.156,1032.626,1736.628z"/>
		<path style="fill:#606A97;" d="M960.374,1771.825c0,0,15.072-7.199,24.748,5.464l-18.998,9.502
			C966.124,1786.791,962.383,1780.274,960.374,1771.825z"/>
		<path style="fill:#F69D85;" d="M819.962,1877.699c2.084,0.292,5.058-0.179,7.245-0.469c12.971-1.726,21.85-11.072,20.125-24.042
			l-29.262-219.93c-1.282-9.635-8.318-17.509-17.748-19.862l-154.745-38.621c-12.698-3.167-25.556,4.555-28.724,17.25
			c-3.169,12.696,4.554,25.556,17.25,28.724l139.121,34.721l27.138,203.967C801.796,1870.22,809.691,1876.259,819.962,1877.699z"/>
		<path style="fill:#30313C;" d="M576.69,1528.239c0,0-20.882,68.563,20.794,106.161c36.983,33.364,164.209,31.817,164.209,31.817
			l18.385,159.779c0,0,45.444,6.272,72.299-5.842c1.024-31.131,7.766-165.983-20.228-207.454
			c-15.575-23.074-84.263-72.901-126.622-86.337L576.69,1528.239z"/>
		<path style="fill:#404D7F;" d="M797.502,1872.786c0.389,1.236,0.994,2.366,1.77,3.348c1.926,2.439,4.908,3.957,8.203,3.812
			l75.346-3.43c3.751-0.167,6.499-2.463,7.792-5.42c0.4-0.898,0.66-1.863,0.77-2.85c0.336-2.962-0.667-6.111-3.362-8.336
			l-10.853-8.956l-11.665-9.625c-34.612,6.916-68.407-0.871-68.407-0.871l-0.045,16.49l-0.032,12.628
			C797.015,1870.697,797.182,1871.775,797.502,1872.786z"/>
		<path style="fill:#404D7F;" d="M872.021,1846.706c0,0-16.451-13.715-21.306-16.948s-16.408,1.648-14.893,6.386
			c1.515,4.738,9.993,11.952,9.993,11.952L872.021,1846.706z"/>
		<path style="fill:#606A97;" d="M796.869,1872.731c0.009,0.164,0.018,0.246,0.018,0.246c1.466,4.698,5.827,7.821,10.616,7.62
			l31.447-1.429l43.902-2.003h0.036c1.839-0.091,3.396-0.628,4.68-1.466c2.668-1.703,4.152-4.643,4.461-7.384
			c0.018-0.191-0.046-0.373-0.173-0.51c-0.109-0.128-0.264-0.2-0.428-0.209h-0.073l-1.857,0.091l-26.375,1.275l-20.849,1.01
			l-5.299,0.255l-19.392,0.938h-0.027l-11.107,0.537l-8.977,0.437c-0.046,0-0.091,0.009-0.137,0.027
			c-0.146,0.036-0.273,0.118-0.364,0.246C796.905,1872.503,796.869,1872.613,796.869,1872.731z"/>
		<path style="fill:#606A97;" d="M877.167,1850.953c0,0,16.146,8.332,14.86,17.365l-28.964,1.115
			C863.063,1869.433,864.119,1856.032,877.167,1850.953z"/>
		<path style="fill:#606A97;" d="M797.05,1856.947c0,0,16.592,0.274,20.529,14.218l-20.696,1.814
			C796.883,1872.979,796.304,1867.186,797.05,1856.947z"/>
		<path style="fill:#60BF60;" d="M711.492,1304.638c0,0-13.071,139.37,8.824,176.518c18.416,31.245,154.701,45.065,154.701,45.065
			s-6.035-17.449,0.647-43.97c0,0-36.024-23.863-77.865-41.833C797.798,1440.417,776.893,1313.452,711.492,1304.638z"/>
		
			<rect x="651.126" y="1266.793" transform="matrix(0.0147 -0.9999 0.9999 0.0147 -614.598 1948.4658)" style="fill:#F69D85;" width="60.482" height="38.583"/>
		<path style="fill:#D1836B;" d="M669.272,1285.903c16.119,8.468,31.288,7.009,31.288,7.009l0.172-11.714L669.272,1285.903z"/>
		<path style="fill:#F69D85;" d="M676.641,1527.971l2.341,0.034c35.633,0.524,64.944-27.937,65.467-63.57l-5.153-56.082
			c0.524-35.633-21.332-107.652-56.964-108.176l-2.341-0.034c-35.633-0.524-64.944,27.937-65.468,63.57l-1.453,98.79
			C612.547,1498.136,641.008,1527.447,676.641,1527.971z"/>
		<path style="fill:#60BF60;" d="M711.492,1304.638c0,0-28.141,25.507-59.033-3.069c0,0-36.96,10.103-55.432,61.665
			c-33.723,94.133-26.399,165.301-26.399,165.301s26.697,11.197,88.902-0.816c50.197-9.694,96.822-5.035,96.822-5.035
			s2.226-53.984-2.113-111.625C750.257,1358.149,732.514,1330.172,711.492,1304.638z"/>
		<path style="fill:#F1F3F2;" d="M661.953,1294.389c0,0,18.176,12.588,28.015,12.733c8.877,0.13,10.511-8.661,10.511-8.661
			l11.014,6.177l-8.662,23.711l-11.553-14.089l-8.253,15.184l-30.565-27.875L661.953,1294.389z"/>
		<path style="fill:#F69D85;" d="M631.423,1235.78c-0.355,5.941,4.173,11.046,10.115,11.401s11.045-4.173,11.401-10.115
			c0.355-5.941-4.173-11.046-10.115-11.401C636.883,1225.311,631.778,1229.839,631.423,1235.78z"/>
		<path style="fill:#AF5945;" d="M641.428,1243.378c0.035,0.012,0.073,0.022,0.111,0.028c0.345,0.053,0.667-0.183,0.721-0.527
			c0.633-4.083-1.983-5.276-3.714-6.066c-0.775-0.353-1.507-0.687-1.668-1.123c-0.089-0.242-0.028-0.591,0.18-1.037
			c1.638-3.51,6.124-3.071,6.314-3.051c0.346,0.037,0.657-0.213,0.695-0.559c0.038-0.346-0.213-0.658-0.557-0.695
			c-0.227-0.025-5.572-0.564-7.596,3.772c-0.361,0.774-0.433,1.43-0.22,2.008c0.342,0.929,1.307,1.37,2.328,1.835
			c1.71,0.78,3.477,1.586,2.991,4.724C640.964,1242.991,641.145,1243.28,641.428,1243.378z"/>
		<path style="fill:#F69D85;" d="M720.037,1242.447c-0.355,5.941,4.173,11.046,10.114,11.401
			c5.941,0.355,11.046-4.173,11.401-10.115c0.355-5.941-4.173-11.046-10.115-11.401
			C725.497,1231.977,720.392,1236.506,720.037,1242.447z"/>
		<path style="fill:#AF5945;" d="M731.389,1250.147c0.068,0.024,0.142,0.036,0.219,0.034c0.349-0.006,0.626-0.294,0.62-0.642
			c-0.058-3.175,1.803-3.734,3.602-4.276c1.075-0.323,2.09-0.629,2.555-1.504c0.289-0.543,0.306-1.203,0.053-2.019
			c-1.418-4.57-6.787-4.76-7.016-4.765c-0.348-0.009-0.637,0.266-0.646,0.614c-0.009,0.348,0.266,0.638,0.613,0.648
			c0.191,0.005,4.695,0.178,5.843,3.877c0.146,0.471,0.159,0.824,0.038,1.052c-0.218,0.41-0.989,0.642-1.805,0.887
			c-1.822,0.548-4.576,1.376-4.501,5.508C730.97,1249.834,731.147,1250.063,731.389,1250.147z"/>
		<path style="fill:#F69D85;" d="M683.31,1286.46L683.31,1286.46c22.366,1.337,41.581-15.71,42.918-38.076l1.257-21.022
			c1.337-22.366-15.71-41.581-38.076-42.918l0,0c-22.366-1.337-41.581,15.71-42.918,38.076l-1.257,21.021
			C643.897,1265.907,660.944,1285.123,683.31,1286.46z"/>
		<path style="fill:#D1836B;" d="M672.322,1255.794c-0.071,2.43,1.459,5.804,5.071,8.393c4.904,3.514,14.916,4.3,19.578,1.957
			c2.504-1.259,4.231-3.469,4.851-5.481c0.528-1.732,0.238-3.318-1.079-4.023c-2.855-1.525-11.033,0.202-16.354-1.839
			c-5.729-2.198-9.862-3.282-11.412-1.168C672.57,1254.184,672.342,1254.929,672.322,1255.794z"/>
		<path style="fill:#FFFFFF;" d="M672.322,1255.794c11.73,5.967,27.722,4.996,29.501,4.869c0.528-1.732,0.238-3.318-1.079-4.023
			c-2.855-1.525-11.033,0.202-16.354-1.839c-5.729-2.198-9.862-3.282-11.412-1.168
			C672.57,1254.184,672.342,1254.929,672.322,1255.794z"/>
		<path style="fill:#AF5945;" d="M677.025,1264.7c-4.039-2.895-5.404-6.507-5.335-8.922c0.024-0.99,0.293-1.861,0.777-2.518
			c1.768-2.41,5.961-1.423,12.147,0.952c2.742,1.057,6.352,1.064,9.536,1.073c2.911,0.009,5.427,0.018,6.89,0.799
			c1.504,0.806,2.035,2.631,1.384,4.766c-0.734,2.379-2.715,4.623-5.171,5.858c-3.935,1.977-10.957,1.812-16.219-0.015
			C679.512,1266.164,678.136,1265.495,677.025,1264.7z M694.147,1256.547c-3.292-0.01-7.022-0.021-9.984-1.157
			c-4.742-1.817-9.313-3.244-10.678-1.383c-0.331,0.449-0.515,1.071-0.532,1.801l0,0.003c-0.058,1.995,1.166,5.251,4.808,7.861
			c4.551,3.262,14.281,4.242,18.927,1.906c2.581-1.298,4.033-3.487,4.531-5.101c0.177-0.578,0.642-2.525-0.773-3.282
			c-0.129-0.069-0.273-0.13-0.431-0.185C698.718,1256.561,696.49,1256.555,694.147,1256.547z"/>
		<path style="fill:#D1836B;" d="M663.845,1239.457c-0.471,2.114,1.026,4.246,3.342,4.761c2.317,0.516,4.576-0.78,5.047-2.894
			c0.471-2.114-1.026-4.246-3.343-4.761C666.575,1236.048,664.316,1237.343,663.845,1239.457z"/>
		<path style="fill:#D1836B;" d="M707.832,1245.77c-0.471,2.114,1.026,4.246,3.343,4.761c2.317,0.516,4.576-0.78,5.047-2.894
			c0.471-2.114-1.026-4.246-3.343-4.761C710.562,1242.361,708.302,1243.656,707.832,1245.77z"/>
		<path style="fill:#5E3628;" d="M662.894,1180.336c0,0-4.454-13.812,2.888-19.357c7.491-5.658,17.787,1.76,22.101,7.918
			c0,0,2.128-6.13,6.423-11.627c7.483-9.578,26.596-2.912,14.111,16.548c0,0,6.195-9.379,20.144-5.516
			c13.95,3.862,6.717,19.749-5.481,22.382c0,0,14.986-2.892,19.228,9.62c2.013,5.938-0.875,10.062-6.285,12.048
			c-0.482,4.981-2.271,14.382-8.872,20.595c0,0-1.063-12.422-6.203-19.821c-2.919-0.499-5.945-1.321-8.96-2.498
			c-17.069-6.662-25.766-16.305-25.766-16.305s-3.422,8.869-12.71,11.777c-4.64,1.453-9.565,1.615-14.159,0.618l0.202,0.228
			c0,0-8.033,6.826-13.314,19.743c0,0-10.987-15.227,0.846-26.407C640.035,1193.319,645.006,1175.103,662.894,1180.336z"/>
		<path style="fill:#AF5945;" d="M689.762,1248.231c0.092,0.032,0.194,0.043,0.297,0.028c0.587-0.085,5.731-0.91,5.708-3.622
			c-0.02-2.291-2.715-12.742-2.83-13.186c-0.087-0.337-0.431-0.54-0.769-0.453c-0.337,0.087-0.54,0.432-0.453,0.769
			c0.771,2.981,2.775,11.108,2.79,12.88c0.011,1.273-3.113,2.141-4.627,2.362c-0.345,0.05-0.584,0.371-0.533,0.715
			C689.379,1247.967,689.546,1248.156,689.762,1248.231z"/>
		<path style="fill:#30313C;" d="M706.416,1232.43c-0.365,3.004-1.902,5.288-3.434,5.102c-1.531-0.186-2.477-2.772-2.112-5.776
			c0.365-3.004,1.902-5.288,3.433-5.102C705.835,1226.84,706.781,1229.426,706.416,1232.43z"/>
		<path style="fill:#30313C;" d="M683.789,1230.408c-0.365,3.004-1.902,5.288-3.434,5.102c-1.531-0.186-2.477-2.772-2.112-5.776
			c0.365-3.004,1.902-5.288,3.433-5.102C683.208,1224.819,684.154,1227.405,683.789,1230.408z"/>
		<path style="fill:#AF5945;" d="M699.759,1218.968c0.151,0.052,0.316,0.071,0.485,0.049c6.666-0.878,12.602,3.582,12.66,3.627
			c0.465,0.353,1.13,0.265,1.485-0.199c0.355-0.465,0.266-1.13-0.199-1.485c-0.27-0.206-6.698-5.034-14.222-4.044
			c-0.58,0.077-0.988,0.609-0.912,1.188C699.11,1218.516,699.392,1218.84,699.759,1218.968z"/>
		<path style="fill:#AF5945;" d="M670.595,1218.689c0.258,0.089,0.55,0.08,0.815-0.05c7.972-3.919,12.468-0.763,12.513-0.73
			c0.473,0.342,1.135,0.239,1.48-0.234c0.344-0.474,0.239-1.136-0.234-1.48c-0.223-0.162-5.586-3.934-14.694,0.543
			c-0.525,0.258-0.741,0.893-0.483,1.418C670.12,1218.416,670.341,1218.601,670.595,1218.689z"/>
		<path style="fill:#339E33;" d="M678.748,1464.186c0,0,4.908,31.405-19.008,49.335
			C659.74,1513.521,648.304,1477.314,678.748,1464.186z"/>
		<path style="fill:#5E3628;" d="M651.9,1234.418c-1.247-6.043-5.409-11.898-5.409-11.898s-8.529,40.892,13.445,58.219
			c16.324,12.872,49.492,12.833,62.185-12.155c8.743-17.212,4.58-39.04,4.58-39.04s-2.074,6.253-3.631,10.865
			c-1.54,4.56-2.089,10.848-5.915,17.036l-4.445-3.778c-3.333-2.216-7.261-3.485-11.261-3.324c-0.03,0.001-0.06,0.003-0.09,0.004
			c-4.784,0.213-13.063-0.095-21.6-3.539c-1.579-0.637-3.232-1.034-4.91-1.206c-2.928-0.3-5.882,0.226-8.64,1.254l-7.021,3.451
			C659.187,1250.305,654.785,1248.405,651.9,1234.418z M672.186,1249.4c1.319-0.537,2.794-0.501,4.129-0.006
			c11.698,4.338,20.709,4.634,25.08,4.418c2.811-0.139,5.472,1.704,5.932,4.481c0.133,0.802,0.095,1.672-0.222,2.586
			c-1.795,5.172-6.814,10.516-20.9,8.997c-13.267-1.429-19.064-12.177-18.183-16.238
			C668.518,1251.348,670.527,1250.075,672.186,1249.4z"/>
		<path style="fill:#F69D85;" d="M547.391,1472.446l135.798,37.679c8.91,2.472,18.137-2.747,20.61-11.657
			c2.472-8.91-2.747-18.137-11.657-20.609l-114.151-31.673l61.868-98.57c4.915-7.832,2.551-18.166-5.28-23.081
			c-7.832-4.917-18.166-2.552-23.081,5.28l-73.81,117.598c-2.811,4.479-3.341,10.022-1.43,14.952
			C538.168,1467.295,542.296,1471.032,547.391,1472.446z"/>
		<path style="fill:#F69D85;" d="M672.506,1507.143c0,0,12.422,5.371,27.861,4.633c14.46-0.691,19.108-4.713,23.177-9.53
			c4.069-4.817-17.472-19.579-27.049-20.481C686.919,1480.862,676.231,1493.317,672.506,1507.143z"/>
		<path style="fill:#F69D85;" d="M699.361,1511.813c7.542-0.065,14.85,1.406,21.5,5.01c2.994,1.623,8.32,7.311,11.715,2.883
			c4.169-6.349-23.903-20.486-29.264-22.061C689.511,1491.246,686.38,1513.042,699.361,1511.813z"/>
		<path style="fill:#F69D85;" d="M705.694,1506.766c7.311-0.427,14.756,1.338,21.578,4.056c3.788,0.816,8.929,6.758,11.986,1.988
			c2.656-5.204-11.975-11.612-15.728-13.882c-5.584-2.604-11.57-4.703-17.765-5.375
			C697.132,1493.546,697.049,1506.681,705.694,1506.766z"/>
		<path style="fill:#F69D85;" d="M706.62,1500.54c11.215-1.373,23.05,1.071,32.68,7.098c3.541,2.21,7.276-3.072,4.047-5.673
			c-3.766-3.323-8.083-6.195-12.624-8.398c-7.93-3.702-16.618-6.058-25.412-6.205C695.791,1487.572,697.231,1502.208,706.62,1500.54
			z"/>
		<path style="fill:#F69D85;" d="M694.521,1490.071c11.78-1.489,24.189-0.815,35.402,3.221c3.704,1.363,7.207,3.196,10.398,5.508
			c1.567,1.208,3.844,0.881,4.992-0.736c4.154-7.075-19.442-16.235-24.736-17.589c-9.066-2.514-20.035-3.534-29.443-3.271
			C681.711,1477.827,685.258,1492.006,694.521,1490.071z"/>
		<path style="fill:#AF5945;" d="M726.418,1510.845c0.143,0.004,0.285-0.058,0.378-0.18c0.153-0.2,0.114-0.487-0.087-0.639
			c-0.058-0.044-5.877-4.423-14.806-7.076c-0.242-0.071-0.496,0.066-0.568,0.307c-0.072,0.242,0.066,0.496,0.307,0.568
			c8.76,2.603,14.457,6.884,14.513,6.927C726.234,1510.812,726.326,1510.842,726.418,1510.845z"/>
		<path style="fill:#AF5945;" d="M732.388,1504.508c0.153,0.005,0.304-0.068,0.395-0.204c0.139-0.21,0.082-0.493-0.128-0.633
			c-0.067-0.044-6.76-4.447-16.461-7.796c-0.24-0.081-0.498,0.044-0.581,0.283c-0.082,0.238,0.044,0.498,0.283,0.581
			c9.585,3.309,16.189,7.65,16.254,7.694C732.223,1504.481,732.306,1504.506,732.388,1504.508z"/>
		<path style="fill:#AF5945;" d="M734.562,1496.009c0.171,0.005,0.337-0.086,0.42-0.247c0.116-0.224,0.027-0.499-0.197-0.615
			c-0.079-0.041-8-4.105-15.299-6.387c-0.241-0.076-0.497,0.06-0.572,0.299c-0.075,0.241,0.059,0.497,0.299,0.572
			c7.223,2.258,15.074,6.286,15.153,6.327C734.43,1495.991,734.496,1496.007,734.562,1496.009z"/>
		<path style="fill:#60BF60;" d="M652.46,1301.569c0,0-36.88-7.419-72.344,35.425c-35.464,42.844-70.601,98.143-59.55,129.765
			c11.535,33.008,139.174,46.763,139.174,46.763s-5.001-24.651,19.008-49.335l-75.037-25.596
			C603.711,1438.589,680.794,1331.343,652.46,1301.569z"/>
		<path style="fill:#64656E;" d="M833.959,1616.279c0.107,0,0.216-0.025,0.317-0.078c0.334-0.175,0.462-0.589,0.287-0.922
			c-17.624-33.546-84.045-68.42-84.713-68.769c-0.334-0.173-0.747-0.044-0.921,0.29c-0.174,0.334-0.044,0.747,0.29,0.921
			c0.665,0.347,66.71,35.026,84.135,68.193C833.476,1616.147,833.714,1616.279,833.959,1616.279z"/>
		<path style="fill:#64656E;" d="M925.015,1736.832c0.036,0,0.072-0.003,0.109-0.009c35.433-5.67,68.759-31.137,69.091-31.394
			c0.299-0.23,0.354-0.659,0.124-0.958c-0.231-0.299-0.66-0.355-0.958-0.124c-0.33,0.254-33.389,25.512-68.473,31.127
			c-0.372,0.06-0.626,0.41-0.566,0.781C924.395,1736.593,924.686,1736.832,925.015,1736.832z"/>
		<path style="fill:#64656E;" d="M919.199,1726.611c0.046,0,0.092-0.004,0.138-0.014c36.556-7.506,70.227-32.538,70.564-32.79
			c0.301-0.226,0.363-0.654,0.136-0.956c-0.227-0.301-0.654-0.362-0.956-0.136c-0.333,0.25-33.768,25.101-70.018,32.545
			c-0.369,0.076-0.607,0.437-0.532,0.806C918.597,1726.389,918.881,1726.611,919.199,1726.611z"/>
		<path style="fill:#64656E;" d="M801.754,1815.844c30.293,0,50.977-6.32,51.231-6.399c0.36-0.112,0.561-0.495,0.449-0.855
			c-0.112-0.359-0.495-0.562-0.855-0.448c-0.312,0.097-31.703,9.675-73.818,5.099c-0.369-0.054-0.712,0.23-0.753,0.604
			c-0.041,0.375,0.23,0.712,0.605,0.752C786.773,1815.485,794.538,1815.844,801.754,1815.844z"/>
		<path style="fill:#64656E;" d="M801.641,1804.615c28.082,0,51.064-7.529,51.357-7.627c0.358-0.12,0.551-0.507,0.432-0.864
			c-0.119-0.358-0.506-0.549-0.864-0.432c-0.372,0.124-37.647,12.326-75.147,5.468c-0.369-0.071-0.726,0.177-0.794,0.549
			c-0.068,0.371,0.178,0.726,0.549,0.794C785.47,1804.021,793.758,1804.615,801.641,1804.615z"/>
		<path style="fill:#339E33;" d="M678.748,1464.869c0.284,0,0.549-0.179,0.646-0.462c0.122-0.357-0.069-0.745-0.426-0.867
			l-74.24-25.324c3.978-6.682,34.191-57.558,45.597-80.479c0.168-0.338,0.031-0.748-0.307-0.916
			c-0.336-0.166-0.748-0.03-0.915,0.307c-12.137,24.388-45.642,80.547-45.979,81.111c-0.105,0.177-0.126,0.392-0.055,0.586
			c0.071,0.193,0.225,0.344,0.42,0.411l75.038,25.596C678.601,1464.857,678.675,1464.869,678.748,1464.869z"/>
		<path style="fill:#339E33;" d="M756.924,1475.218c0.37,0,0.674-0.296,0.682-0.669c1.459-69.565-21.728-116.951-21.962-117.422
			c-0.168-0.338-0.579-0.474-0.916-0.307c-0.337,0.168-0.475,0.578-0.307,0.915c0.233,0.468,23.271,47.576,21.819,116.785
			c-0.007,0.377,0.292,0.689,0.669,0.697C756.914,1475.218,756.919,1475.218,756.924,1475.218z"/>
		<path style="fill:#404660;" d="M741.882,1532.251l165.362,2.432l24.315-97.02c2.109-8.411-4.177-16.584-12.841-16.712
			l-137.743-2.026c-6.239-0.092-11.723,4.119-13.241,10.175l-24.513,97.814L741.882,1532.251z"/>
		<path style="fill:#606A97;" d="M754.344,1532.434l152.9,2.248l24.315-97.02c2.109-8.411-4.177-16.584-12.841-16.712
			l-125.282-1.842c-6.239-0.092-11.723,4.119-13.241,10.175L754.344,1532.434z"/>
		
			<rect x="697.894" y="1480.117" transform="matrix(0.0147 -0.9999 0.9999 0.0147 -833.2551 2207.0601)" style="fill:#404660;" width="10.709" height="92.424"/>
		<path style="fill:#339E33;" d="M659.74,1514.203c0.349,0,0.646-0.266,0.679-0.62c0.035-0.376-0.241-0.709-0.617-0.743
			c-0.46-0.043-46.511-4.406-89.645-17.643c-0.359-0.108-0.743,0.091-0.853,0.453c-0.111,0.36,0.092,0.742,0.452,0.853
			c43.273,13.28,89.459,17.655,89.921,17.698C659.698,1514.203,659.719,1514.203,659.74,1514.203z"/>
	</g>
	<g id="_x33_">
		<path style="fill:#B74F2A;" d="M1428.309,1087.351c0,0-11.677,15.968-12.749,46.487c-0.777,22.095-11.308,48.004-20.273,67.657
			c-8.964,19.653-13.267,50.414-8.871,67.596c8.06,31.505,47.933,46.786,97.036,35.408c49.103-11.378,64.889-58.813,64.889-93.788
			c0-34.974-21.042-61.221-25.519-99.298c0,0-18.752-28.686-39.37-28.037C1462.834,1084.025,1428.309,1087.351,1428.309,1087.351z"
			/>
		<rect x="1468.981" y="1146.974" style="fill:#F69D85;" width="38.27" height="59.992"/>
		<path style="fill:#D1836B;" d="M1480.385,1182.448c0,0,13.227,5.321,26.866,2.735v-19.527L1480.385,1182.448z"/>
		<path style="fill:#F69D85;" d="M1500.475,1179.761L1500.475,1179.761c20.578-8.395,30.454-31.883,22.058-52.46l-7.891-19.341
			c-8.395-20.578-31.883-30.453-52.46-22.058l0,0c-20.578,8.395-30.453,31.883-22.058,52.46l7.891,19.341
			C1456.41,1178.28,1479.897,1188.156,1500.475,1179.761z"/>
		<path style="fill:#F69D85;" d="M1481.329,1424.53c35.348,0,87.896-9.661,74.139-58.186c-7.065-24.92-15.895-58.613-8.717-103.24
			c5.613-34.899-21.54-71.048-57.47-72.172h-2.322c-34.496,0.549-51.433,34.952-47.793,70.111
			c4.692,45.316-5.853,76.83-15.28,99.563C1398.041,1422.928,1481.329,1424.53,1481.329,1424.53z"/>
		<polygon style="fill:#F69D85;" points="1467.964,1842.217 1420.604,1837.181 1442.686,1629.51 1432.261,1421.846 
			1479.828,1419.458 1490.441,1630.841 		"/>
		<polygon style="fill:#F69D85;" points="1583.193,1773.309 1539.687,1753.928 1615.334,1584.117 1508.92,1425.519 
			1548.47,1398.982 1669.555,1579.445 		"/>
		<path style="fill:#F69D85;" d="M1513.234,1194.789l67.807-68.508l27.201-121.082c1.843-8.205,9.989-13.363,18.195-11.519
			c7.52,1.69,12.478,8.676,11.835,16.148l-10.518,123.653c-0.37,4.358-2.176,8.249-4.912,11.248l-74.681,81.905
			c-8.794,9.645-23.741,10.334-33.385,1.54C1505.13,1219.38,1504.44,1204.433,1513.234,1194.789z"/>
		<path style="fill:#30313C;" d="M1474.407,1131.825c1.132,2.779,0.902,5.501-0.515,6.078c-1.417,0.577-3.484-1.208-4.616-3.987
			c-1.132-2.78-0.902-5.501,0.515-6.078C1471.208,1127.26,1473.275,1129.045,1474.407,1131.825z"/>
		<path style="fill:#30313C;" d="M1496.907,1122.657c1.132,2.78,0.902,5.501-0.515,6.078c-1.417,0.577-3.484-1.208-4.616-3.987
			c-1.133-2.78-0.902-5.501,0.515-6.078C1493.708,1118.093,1495.775,1119.878,1496.907,1122.657z"/>
		<path style="fill:#D1836B;" d="M1462.383,1148.312c0.486,2.093,2.738,3.357,5.031,2.825c2.293-0.532,3.758-2.66,3.273-4.752
			c-0.486-2.093-2.738-3.357-5.031-2.825C1463.363,1144.092,1461.897,1146.22,1462.383,1148.312z"/>
		<path style="fill:#D1836B;" d="M1504.958,1132.852c0.486,2.092,2.738,3.357,5.031,2.825c2.293-0.532,3.758-2.66,3.273-4.752
			c-0.486-2.092-2.738-3.357-5.031-2.825S1504.473,1130.76,1504.958,1132.852z"/>
		<path style="fill:#F69D85;" d="M1431.91,1239.019l-87.961-67.428c-3.471-2.661-5.777-6.288-6.829-10.209l-32.184-119.854
			c-2.181-8.122,2.635-16.474,10.757-18.655c7.444-1.999,15.081,1.883,17.983,8.798l48.151,114.378l78.837,55.46
			c10.358,7.94,12.318,22.774,4.378,33.133S1442.269,1246.959,1431.91,1239.019z"/>
		<path style="fill:#F1F3F2;" d="M1507.253,1194.383c0,0,19.099,4.26,37.777,32.684c5.121,7.793,16.81,28.601,16.81,40.772
			c0,13.233-13.499,20.744-13.499,44.707c0,23.759,17.382,38.997,7.128,53.798c-6.032,8.706-95.081,20.569-132.396-3.476
			c-20.761-13.377,17.885-41.024,6.95-106.061c-4.755-28.284,23.511-55.849,38.934-62.424c0,0,13.537,37.88,26.703,37.209
			C1509.178,1230.902,1507.253,1194.383,1507.253,1194.383z"/>
		<path style="fill:#F69D85;" d="M1432.944,1154.704c2.23,5.466,8.469,8.09,13.935,5.859c5.466-2.23,8.09-8.469,5.859-13.935
			s-8.469-8.09-13.936-5.859C1433.337,1142.999,1430.713,1149.238,1432.944,1154.704z"/>
		<path style="fill:#30313C;" d="M1423.072,1362.869c0,0-28.543,35.778-28.596,84.475c-0.052,48.697,34.088,173.605,34.088,173.605
			s-11.729,119.607-5.007,188.099c0,0,28.515,9.348,47.449,4.318c0,0,39.05-114.013,47.594-183.19
			c9.974-80.757-5.31-253.931-5.31-253.931S1466.139,1381.572,1423.072,1362.869z"/>
		<path style="fill:#30313C;" d="M1555.468,1366.344c0,0,113.058,154.521,124.436,209.341
			c11.378,54.821-86.397,174.88-86.397,174.88s-22.892,1.341-45.18-16.243c0,0,12.627-73.82,41.589-145.191
			c0,0-62.832-54.939-98.351-111.71c-35.519-56.77-34.584-102.05-34.584-102.05S1512.745,1383.87,1555.468,1366.344z"/>
		<path style="fill:#64656E;" d="M1497.32,1387.954c-21.766,0-49.405-3.505-80.707-15.341c-0.323-0.122-0.487-0.483-0.364-0.807
			c0.122-0.323,0.484-0.487,0.807-0.364c44.321,16.758,81.249,16.728,104.422,13.751c25.112-3.226,39.935-10.51,40.081-10.583
			c0.312-0.154,0.686-0.029,0.84,0.28c0.154,0.31,0.029,0.685-0.28,0.84c-0.148,0.074-15.116,7.438-40.419,10.696
			C1514.748,1387.322,1506.561,1387.954,1497.32,1387.954z"/>
		<path style="fill:#3E8EDD;" d="M1468.957,1194.383c0,0-40.399-29.852-80.222-56.228c0,0-27.927-61.581-50.683-95.178
			c0,0-17.377-2.568-31.186,7.259c0,0,6.203,91.54,25.935,122.57c19.731,31.03,99.894,85.851,99.894,85.851
			S1464.877,1224.934,1468.957,1194.383z"/>
		<path style="fill:#3E8EDD;" d="M1507.253,1194.383c0,0,21.098-33.989,69.723-76.914c0,0,14.491-64.615,28.972-102.902
			c0,0,13.618-4.083,31.375,3.381c0,0,9.359,103.71-4.543,129.026c-13.902,25.316-57.68,78.824-81.312,104.772L1507.253,1194.383z"
			/>
		<path style="fill:#B74F2A;" d="M1474.036,1072.811c0,0,15.344-12.066,33.217,0c15.634,10.554,16.809,27.763,15.43,44.657
			C1522.683,1117.469,1487.246,1094.137,1474.036,1072.811z"/>
		<path style="fill:#F69D85;" d="M1510.106,1125.138c2.23,5.466,8.469,8.09,13.935,5.859s8.09-8.469,5.859-13.936
			c-2.23-5.466-8.469-8.09-13.935-5.859C1510.5,1113.433,1507.876,1119.672,1510.106,1125.138z"/>
		<path style="fill:#AF5945;" d="M1522.248,1126.895c-0.244,0-0.476-0.144-0.577-0.383c-1.589-3.778,0.644-5.554,2.121-6.729
			c0.661-0.526,1.286-1.023,1.336-1.481c0.028-0.254-0.114-0.576-0.422-0.955c-2.418-2.986-6.63-1.488-6.809-1.422
			c-0.323,0.119-0.684-0.047-0.803-0.371c-0.119-0.324,0.046-0.683,0.37-0.803c0.212-0.078,5.227-1.879,8.215,1.809
			c0.533,0.658,0.76,1.273,0.693,1.88c-0.107,0.977-0.93,1.632-1.801,2.325c-1.458,1.16-2.967,2.36-1.746,5.264
			c0.134,0.319-0.016,0.686-0.335,0.82C1522.411,1126.879,1522.329,1126.895,1522.248,1126.895z"/>
		<path style="fill:#AF5945;" d="M1444.929,1156.422c-0.28,0-0.536-0.19-0.606-0.474c-0.765-3.056-2.691-3.112-4.555-3.166
			c-1.113-0.032-2.164-0.062-2.835-0.78c-0.417-0.446-0.604-1.074-0.572-1.92c0.179-4.743,5.272-6.31,5.489-6.374
			c0.333-0.098,0.679,0.091,0.777,0.421c0.099,0.331-0.089,0.68-0.42,0.779c-0.182,0.055-4.45,1.383-4.595,5.222
			c-0.018,0.489,0.061,0.831,0.236,1.017c0.314,0.337,1.112,0.36,1.956,0.384c1.887,0.054,4.738,0.137,5.732,4.113
			c0.085,0.336-0.12,0.676-0.455,0.759C1445.031,1156.416,1444.979,1156.422,1444.929,1156.422z"/>
		<path style="fill:#818496;" d="M1486.133,1239.313c-0.318,0-0.638-0.019-0.959-0.056c-9.841-1.148-17.148-19.551-17.455-20.334
			c-0.125-0.322,0.033-0.685,0.355-0.811c0.324-0.127,0.685,0.033,0.812,0.355c0.072,0.185,7.337,18.487,16.434,19.547
			c3.37,0.392,6.651-1.69,9.764-6.19c0.11-0.16,0.289-0.259,0.483-0.269c0.194-0.006,0.381,0.071,0.508,0.218
			c0.047,0.056,4.822,5.549,10.047,4.434c4.227-0.901,7.678-5.771,10.257-14.472c0.099-0.331,0.446-0.52,0.778-0.422
			c0.331,0.098,0.52,0.447,0.422,0.778c-2.72,9.18-6.49,14.342-11.203,15.342c-4.903,1.043-9.228-2.757-10.712-4.265
			C1492.677,1237.251,1489.478,1239.313,1486.133,1239.313z"/>
		<path style="fill:#B74F2A;" d="M1491.564,1079.178c0,0-0.596,23.457-21.145,31.23c-24.132,9.129-23.273,43.608-23.273,43.608
			s-22.256-18.404-24.075-36.547C1418.911,1075.959,1455.105,1052.629,1491.564,1079.178z"/>
		<path style="fill:#AF5945;" d="M1484.347,1113.788c-0.176,0-0.356-0.045-0.52-0.139c-0.504-0.288-0.679-0.93-0.391-1.433
			c1.415-2.476,3.268-3.971,5.507-4.443c3.78-0.796,7.197,1.683,7.341,1.79c0.466,0.344,0.565,1.002,0.221,1.469
			c-0.344,0.466-1.001,0.566-1.467,0.223l0,0c-0.028-0.02-2.823-2.03-5.674-1.423c-1.622,0.346-3.002,1.499-4.103,3.426
			C1485.067,1113.598,1484.712,1113.788,1484.347,1113.788z"/>
		<path style="fill:#AF5945;" d="M1462.534,1123.715c-0.12,0-0.242-0.021-0.362-0.064c-0.545-0.2-0.824-0.803-0.625-1.348
			c1.142-3.115,2.875-5.132,5.152-5.998c3.208-1.221,6.242,0.373,6.369,0.441c0.511,0.274,0.703,0.911,0.429,1.422
			c-0.274,0.51-0.905,0.704-1.419,0.431c-0.036-0.019-2.354-1.209-4.65-0.324c-1.674,0.644-2.988,2.243-3.907,4.751
			C1463.365,1123.451,1462.963,1123.715,1462.534,1123.715z"/>
		<path style="fill:#F69D85;" d="M1607.164,1796.67l-24.402-42.195l-38.637-10.503
			C1544.125,1743.972,1582.51,1794.156,1607.164,1796.67z"/>
		<path style="fill:#606A97;" d="M1538.059,1788.772c18.862,9.182,54.835,26.671,67.372,32.772c3.481,1.695,7.025,0.455,9.028-2.031
			h0.007c0.392-0.371,0.687-0.798,0.904-1.282v-0.007c2.865-6.353-8.202-21.551-8.202-21.551l-55.255-50.583l-6.045-5.533
			c-6.654,8.972-14.967,21.348-17.174,33.871C1527.707,1780.038,1532.932,1786.278,1538.059,1788.772z"/>
		<path style="fill:#AF5945;" d="M1489.899,1143.986c-0.18,0-0.359-0.078-0.484-0.228c-0.22-0.266-0.182-0.661,0.085-0.881
			c1.17-0.967,3.371-3.312,2.707-4.385c-0.925-1.496-6.807-7.354-8.995-9.486c-0.248-0.242-0.253-0.638-0.012-0.886
			c0.242-0.247,0.638-0.252,0.885-0.012c0.326,0.317,7.991,7.792,9.186,9.724c1.415,2.287-2.522,5.635-2.975,6.009
			C1490.18,1143.94,1490.039,1143.986,1489.899,1143.986z"/>
		<path style="fill:#404D7F;" d="M1538.059,1788.772c18.862,9.182,54.835,26.671,67.372,32.772c3.481,1.695,7.025,0.455,9.028-2.031
			h0.007c0.392-0.371,0.687-0.798,0.904-1.282v-0.007l-86.675-43.796C1527.707,1780.038,1532.932,1786.278,1538.059,1788.772z"/>
		<path style="fill:#F69D85;" d="M1499.399,1857.459l-40.349-27.346l-39.352,7.382
			C1419.697,1837.495,1476.112,1865.939,1499.399,1857.459z"/>
		<path style="fill:#606A97;" d="M1433.757,1880.465c20.975,0.04,60.977,0.113,74.92,0.141c3.872,0.009,6.521-2.651,7.241-5.762
			l0.006-0.003c0.302-0.807,0.331-1.647,0.132-2.507c-1.532-6.799-16.657-14.877-16.657-14.877l-71.781-21.449l-7.842-2.343
			c-2.083,10.969-4.582,24.178-1.098,36.405C1420.573,1876.716,1428.056,1880.455,1433.757,1880.465z"/>
		<path style="fill:#404D7F;" d="M1433.757,1880.465c20.975,0.04,60.977,0.113,74.92,0.141c3.872,0.009,6.521-2.651,7.241-5.762
			l0.006-0.003c0.302-0.807,0.331-1.647,0.132-2.507l-97.378-2.264C1420.573,1876.716,1428.056,1880.455,1433.757,1880.465z"/>
		<path style="fill:#64656E;" d="M1603.041,1738.982c-0.031,0-0.062-0.003-0.094-0.007c-0.28-0.042-28.306-4.369-52.129-18.655
			c-0.297-0.177-0.393-0.563-0.215-0.859c0.177-0.297,0.562-0.393,0.859-0.215c23.613,14.159,51.393,18.448,51.671,18.49
			c0.342,0.051,0.577,0.37,0.526,0.712C1603.613,1738.76,1603.346,1738.982,1603.041,1738.982z"/>
		<path style="fill:#3E8EDD;" d="M1468.957,1194.383c0,0-1.064,66.66-6.422,108.201c-5.358,41.541-9.001,94.245-9.001,94.245
			s-35.452-1.003-59.057-19.037c0,0,16.946-59.558,19.492-85.986c4.943-51.307,9.757-77.755,20.128-96.455
			C1444.468,1176.652,1468.957,1194.383,1468.957,1194.383z"/>
		<path style="fill:#3E8EDD;" d="M1507.253,1194.383c0,0,22.146,50.315,21.442,103.963c-0.704,53.648,12.887,98.483,12.887,98.483
			s19.306,0.532,43.987-17.502c0,0-5.245-32.34-11.741-54.515c-6.496-22.175,1.116-59.328-11.989-84.743
			C1548.735,1214.655,1507.253,1194.383,1507.253,1194.383z"/>
		<path style="fill:#305777;" d="M1561.84,1240.695c-0.208,0-0.41-0.103-0.529-0.291c-0.09-0.141-9.092-14.245-17.781-21.222
			c-0.27-0.216-0.313-0.61-0.097-0.88c0.216-0.269,0.611-0.313,0.88-0.096c8.853,7.108,17.964,21.384,18.056,21.527
			c0.185,0.292,0.099,0.679-0.193,0.864C1562.071,1240.664,1561.954,1240.695,1561.84,1240.695z"/>
		<path style="fill:#305777;" d="M1638.024,1027.344c-0.064,0-0.13-0.01-0.194-0.031c-0.192-0.062-19.305-6.193-35.008-3.126
			c-0.34,0.066-0.669-0.156-0.734-0.495c-0.066-0.339,0.155-0.668,0.495-0.734c16.027-3.129,35.441,3.101,35.636,3.164
			c0.329,0.107,0.509,0.461,0.401,0.789C1638.533,1027.176,1638.288,1027.344,1638.024,1027.344z"/>
		<path style="fill:#305777;" d="M1307.912,1063.256c-0.139,0-0.279-0.046-0.395-0.141c-0.268-0.219-0.308-0.613-0.089-0.881
			c11.052-13.541,35.385-11.139,36.414-11.031c0.344,0.036,0.593,0.344,0.557,0.688c-0.036,0.343-0.349,0.59-0.688,0.557
			c-0.247-0.026-24.692-2.437-35.314,10.577C1308.274,1063.178,1308.094,1063.256,1307.912,1063.256z"/>
		<path style="fill:#305777;" d="M1308.724,1071.329c-0.193,0-0.384-0.089-0.507-0.258c-0.204-0.279-0.142-0.671,0.138-0.875
			c17.661-12.86,39.967-11.213,40.19-11.194c0.345,0.028,0.601,0.33,0.573,0.674c-0.028,0.345-0.335,0.602-0.675,0.573
			c-0.22-0.018-22.075-1.623-39.352,10.958C1308.98,1071.29,1308.852,1071.329,1308.724,1071.329z"/>
		<path style="fill:#64656E;" d="M1470.164,1799.113c-9.051,0-27.552-0.66-47.929-5.188c-0.337-0.075-0.55-0.41-0.475-0.747
			c0.075-0.338,0.412-0.546,0.747-0.475c28.434,6.32,53.188,5.062,53.434,5.049c0.337-0.023,0.641,0.245,0.659,0.591
			c0.019,0.345-0.245,0.641-0.59,0.659C1475.938,1799.005,1473.822,1799.113,1470.164,1799.113z"/>
		<path style="fill:#64656E;" d="M1521.409,1518.836c-0.002,0-0.005,0-0.007,0c-0.346-0.004-0.623-0.288-0.619-0.633
			c0.003-0.248,0.282-24.933,0.569-39.255c0.007-0.345,0.315-0.606,0.639-0.613c0.345,0.007,0.62,0.293,0.613,0.639
			c-0.288,14.316-0.567,38.996-0.569,39.243C1522.031,1518.561,1521.751,1518.836,1521.409,1518.836z"/>
		<path style="fill:#305777;" d="M1638.527,1034.552c-0.081,0-0.163-0.016-0.242-0.049c-15.324-6.417-37.531-3.644-37.753-3.615
			c-0.349,0.048-0.657-0.198-0.701-0.541c-0.044-0.343,0.198-0.657,0.541-0.701c0.225-0.029,22.767-2.844,38.397,3.702
			c0.319,0.133,0.469,0.5,0.336,0.819C1639.004,1034.407,1638.772,1034.552,1638.527,1034.552z"/>
		<path style="fill:#305777;" d="M1455.424,1245.703c-3.106,0-5.633-2.527-5.633-5.633c0-3.106,2.527-5.633,5.633-5.633
			c3.106,0,5.633,2.527,5.633,5.633C1461.057,1243.176,1458.53,1245.703,1455.424,1245.703z M1455.424,1235.688
			c-2.416,0-4.381,1.966-4.381,4.381c0,2.416,1.966,4.381,4.381,4.381s4.381-1.965,4.381-4.381
			C1459.805,1237.654,1457.84,1235.688,1455.424,1235.688z"/>
		<path style="fill:#305777;" d="M1452.833,1288.93c-3.107,0-5.633-2.527-5.633-5.633c0-3.106,2.527-5.633,5.633-5.633
			c3.106,0,5.633,2.527,5.633,5.633C1458.466,1286.403,1455.939,1288.93,1452.833,1288.93z M1452.833,1278.915
			c-2.416,0-4.381,1.965-4.381,4.381c0,2.416,1.966,4.381,4.381,4.381s4.381-1.965,4.381-4.381
			C1457.214,1280.881,1455.249,1278.915,1452.833,1278.915z"/>
		<path style="fill:#305777;" d="M1443.519,1368.502c-3.106,0-5.633-2.527-5.633-5.633c0-3.106,2.527-5.633,5.633-5.633
			c3.107,0,5.633,2.527,5.633,5.633C1449.152,1365.975,1446.626,1368.502,1443.519,1368.502z M1443.519,1358.488
			c-2.415,0-4.381,1.965-4.381,4.381c0,2.415,1.966,4.381,4.381,4.381c2.416,0,4.381-1.966,4.381-4.381
			C1447.9,1360.453,1445.935,1358.488,1443.519,1358.488z"/>
		<path style="fill:#305777;" d="M1447.826,1330.803c-3.106,0-5.633-2.527-5.633-5.633c0-3.106,2.527-5.633,5.633-5.633
			s5.633,2.527,5.633,5.633C1453.459,1328.276,1450.932,1330.803,1447.826,1330.803z M1447.826,1320.789
			c-2.416,0-4.381,1.965-4.381,4.381s1.966,4.381,4.381,4.381s4.381-1.965,4.381-4.381S1450.241,1320.789,1447.826,1320.789z"/>
		<path style="fill:#D1836B;" d="M1478.531,1155.8c0.969,2.208,3.773,4.582,8.111,5.367c5.888,1.066,15.196-2.484,18.379-6.565
			c1.709-2.193,2.317-4.907,2.019-6.973c-0.263-1.777-1.197-3.075-2.677-3.147c-3.207-0.154-9.803,4.869-15.439,5.301
			c-6.069,0.465-10.234,1.25-10.725,3.802C1478.069,1154.251,1478.181,1155.016,1478.531,1155.8z"/>
		<path style="fill:#FFFFFF;" d="M1478.531,1155.8c13.049,0.364,26.97-7.302,28.51-8.171c-0.263-1.777-1.197-3.075-2.677-3.147
			c-3.207-0.154-9.803,4.869-15.439,5.301c-6.069,0.465-10.234,1.25-10.725,3.802
			C1478.069,1154.251,1478.181,1155.016,1478.531,1155.8z"/>
		<path style="fill:#AF5945;" d="M1488.917,1161.982c-0.84,0-1.642-0.064-2.387-0.199c-4.849-0.878-7.608-3.535-8.572-5.729
			c-0.399-0.897-0.528-1.792-0.373-2.589c0.56-2.909,4.735-3.805,11.292-4.307c2.906-0.223,6.145-1.746,9.002-3.09
			c2.613-1.229,4.866-2.287,6.515-2.212c1.691,0.083,2.942,1.493,3.266,3.681c0.354,2.446-0.468,5.3-2.144,7.45
			C1502.485,1158.871,1494.777,1161.982,1488.917,1161.982z M1504.214,1145.104c-1.343,0-3.511,1.02-5.802,2.098
			c-2.955,1.39-6.304,2.965-9.44,3.205c-5.02,0.384-9.726,1.05-10.158,3.297c-0.107,0.544-0.006,1.181,0.288,1.842l0.001,0.003
			c0.796,1.813,3.277,4.211,7.649,5.003c5.471,0.987,14.602-2.267,17.774-6.334c1.762-2.26,2.133-4.839,1.894-6.499
			c-0.088-0.592-0.498-2.534-2.088-2.612C1504.294,1145.105,1504.255,1145.104,1504.214,1145.104z"/>
		<path style="fill:#305777;" d="M1418.96,1249.584c-0.032,0-0.064-0.002-0.097-0.007c-0.342-0.053-0.575-0.373-0.523-0.715
			c0.032-0.204,3.19-20.514,5.61-28.774c0.097-0.332,0.445-0.523,0.777-0.425c0.332,0.097,0.522,0.445,0.425,0.776
			c-2.398,8.182-5.543,28.41-5.575,28.614C1419.531,1249.363,1419.264,1249.584,1418.96,1249.584z"/>
		<path style="fill:#F69D85;" d="M1619.188,940.203c-4.664,11.98-8.546,24.303-10.881,36.971
			c-2.265,10.035,11.96,10.541,10.986,0.242c1.108-11.799,3.572-23.47,6.765-34.883
			C1627.433,938.203,1620.723,935.942,1619.188,940.203z"/>
		<path style="fill:#F69D85;" d="M1608.241,1007.889l29.495,3.029c12.566-16.748,8.313-40.225,5.133-44.384l-31.116-4.3
			C1602.364,985.092,1608.241,1007.889,1608.241,1007.889z"/>
		<path style="fill:#F69D85;" d="M1622.8,979.131c0.996-0.526,1.771-1.459,2.062-2.639c1.529-6.213,4.112-11.872,4.138-11.929
			c2.283-4.786-5.29-8.271-7.434-3.412C1622.026,960.908,1610.398,982.577,1622.8,979.131z"/>
		<path style="fill:#F69D85;" d="M1631.048,981.707c0.996-0.526,1.771-1.459,2.062-2.639c1.539-6.255,3.971-11.89,3.996-11.947
			c2.182-4.832-5.462-8.158-7.504-3.255c-0.111,0.255-2.732,6.331-4.434,13.247C1624.229,980.433,1628.1,983.395,1631.048,981.707z"
			/>
		<path style="fill:#F69D85;" d="M1638.892,984.071c1.02-0.478,1.839-1.373,2.186-2.537c1.866-6.269,3.711-10.757,3.73-10.802
			c2.096-4.869-5.6-8.06-7.558-3.127c-0.082,0.197-2.017,4.895-4.011,11.596C1632.142,982.472,1635.868,985.615,1638.892,984.071z"
			/>
		<path style="fill:#AF5945;" d="M1616.308,974.387c1.726-7.012,4.565-13.237,4.685-13.499c0.145-0.316,0.519-0.454,0.834-0.309
			c0.316,0.145,0.454,0.518,0.309,0.834c-0.118,0.257-2.909,6.377-4.607,13.274c-0.221,0.898-0.079,1.828,0.4,2.619
			c0.479,0.791,1.236,1.348,2.134,1.569c0.938,0.231,1.855,0.163,2.516-0.186c0.537-0.284,1.816-1.066,2.094-2.193
			c0,0,0.001-0.001,0.001-0.002c1.76-6.974,4.215-12.929,4.239-12.983c0.138-0.319,0.509-0.465,0.827-0.327
			c0.319,0.138,0.465,0.509,0.327,0.827c-0.024,0.054-2.547,6.223-4.259,13.134c-0.203,0.821-0.153,1.703,0.22,2.463
			c0.461,0.936,1.286,1.597,2.284,1.843c1.193,0.294,2.475-0.06,3.363-1.002c0.428-0.454,0.7-1.03,0.85-1.635
			c1.314-5.285,3.764-10.993,4.509-12.672c0.112-0.253,0.38-0.394,0.653-0.348c0.387,0.065,0.612,0.474,0.456,0.834
			c-0.862,1.994-3.169,7.551-4.397,12.49c-0.026,0.106-0.062,0.209-0.094,0.314c-0.004,0.018,0.001,0.035-0.005,0.052
			c-0.255,0.857-0.129,1.764,0.354,2.554c0.475,0.778,1.266,1.378,2.17,1.647c0.814,0.242,1.686,0.177,2.455-0.183
			c0.901-0.423,1.568-1.202,1.853-2.158l1.468-4.625c0.105-0.332,0.459-0.515,0.79-0.409c0.331,0.105,0.514,0.459,0.409,0.79
			l-1.464,4.614c-0.362,1.217-1.201,2.236-2.318,2.826c-0.067,0.035-0.134,0.069-0.203,0.101c-1.048,0.492-2.237,0.58-3.347,0.25
			c-1.215-0.362-2.24-1.142-2.885-2.196c-0.237-0.387-0.408-0.795-0.519-1.214c-1.2,1.146-2.851,1.573-4.398,1.192
			c-1.319-0.325-2.416-1.182-3.055-2.396c-0.229-0.436-0.376-0.904-0.454-1.384c-0.47,0.405-0.963,0.711-1.335,0.908
			c-0.943,0.499-2.152,0.604-3.404,0.296c-1.224-0.301-2.257-1.061-2.91-2.139C1616.201,976.879,1616.007,975.611,1616.308,974.387z
			"/>
		<path style="fill:#F69D85;" d="M1620.413,995.086c-2.074-2.978-5.145-6.949-5.659-9.712c-1.153-6.197,13.085-8.999,8.149-14.939
			c-2.582-2.673-5.97-0.231-8.563,1.078c-5.321,2.893-11.501,8.257-10.962,14.92c0.299,5.425,2.115,10.281,4.098,15.181
			C1611.499,1013.883,1628.392,1005.106,1620.413,995.086z"/>
		<path style="fill:#AF5945;" d="M1620.181,994.881c0.094-0.05,0.176-0.124,0.235-0.216c0.022-0.034,2.396-3.606,8.518-5.954
			c0.327-0.129,0.486-0.488,0.362-0.813c-0.125-0.324-0.488-0.486-0.813-0.362c-4.888,1.876-7.512,4.464-8.567,5.716
			c-1.833-2.713-4.035-6.263-4.406-8.627c-0.367-2.338,2.107-4.189,4.5-5.981c2.219-1.661,4.314-3.229,4.562-5.329
			c0.127-1.078-0.272-2.182-1.186-3.282c-2.608-2.702-5.896-0.925-8.293,0.37c-0.357,0.193-0.704,0.381-1.037,0.549
			c-2.111,1.148-4.014,2.259-6.094,4.337c-0.246,0.246-0.246,0.644-0.001,0.889c0.246,0.246,0.645,0.247,0.889,0.001
			c1.962-1.959,3.782-3.022,5.789-4.113c0.327-0.165,0.684-0.357,1.051-0.556c2.835-1.532,4.982-2.476,6.759-0.637
			c0.664,0.801,0.959,1.564,0.873,2.296c-0.185,1.564-2.07,2.975-4.067,4.47c-2.566,1.92-5.473,4.097-4.989,7.183
			c0.445,2.832,3.124,6.984,5.101,9.861c0.119,0.174,0.317,0.276,0.528,0.273C1619.997,994.953,1620.094,994.927,1620.181,994.881z"
			/>
		<path style="fill:#F69D85;" d="M1312.51,969.876c6.566,11.053,12.416,22.572,16.796,34.687c3.88,9.528-10.07,12.36-10.797,2.04
			c-3.028-11.457-7.372-22.566-12.394-33.301C1304.047,969.255,1310.296,965.924,1312.51,969.876z"/>
		<path style="fill:#F69D85;" d="M1334.406,1034.85l-28.599,7.824c-15.143-14.461-14.796-38.317-12.342-42.942l29.99-9.344
			C1336.466,1011.398,1334.406,1034.85,1334.406,1034.85z"/>
		<path style="fill:#F69D85;" d="M1315.33,1008.87c-1.069-0.356-1.987-1.149-2.467-2.265c-2.527-5.878-6.003-11.037-6.037-11.089
			c-3.037-4.346,3.863-9.026,6.774-4.585C1313.105,990.766,1328.129,1010.235,1315.33,1008.87z"/>
		<path style="fill:#F69D85;" d="M1307.616,1012.763c-1.069-0.356-1.987-1.149-2.467-2.265c-2.544-5.917-5.867-11.078-5.901-11.13
			c-2.945-4.409,4.05-8.943,6.868-4.442c0.151,0.233,3.734,5.797,6.547,12.341C1314.134,1010.388,1310.8,1013.944,1307.616,1012.763
			z"/>
		<path style="fill:#F69D85;" d="M1300.265,1016.381c-1.084-0.304-2.039-1.053-2.572-2.145c-2.868-5.879-5.425-10.003-5.451-10.044
			c-2.866-4.459,4.203-8.869,6.943-4.324c0.113,0.18,2.793,4.498,5.858,10.781
			C1306.662,1013.697,1303.502,1017.409,1300.265,1016.381z"/>
		<path style="fill:#AF5945;" d="M1320.955,1003.125c-2.852-6.634-6.674-12.309-6.836-12.547c-0.195-0.288-0.586-0.363-0.873-0.168
			c-0.288,0.195-0.363,0.586-0.168,0.873c0.159,0.234,3.916,5.813,6.721,12.339c0.365,0.849,0.378,1.79,0.035,2.649
			c-0.342,0.859-0.999,1.533-1.848,1.898c-0.887,0.382-1.803,0.465-2.512,0.229c-0.576-0.192-1.967-0.753-2.425-1.82
			c0-0.001-0.001-0.001-0.001-0.002c-2.88-6.592-6.278-12.063-6.31-12.112c-0.189-0.292-0.578-0.375-0.87-0.186
			c-0.292,0.189-0.375,0.578-0.186,0.87c0.032,0.05,3.533,5.721,6.355,12.257c0.335,0.777,0.431,1.655,0.187,2.466
			c-0.301,0.999-1.007,1.786-1.951,2.192c-1.129,0.485-2.451,0.346-3.482-0.437c-0.496-0.378-0.859-0.901-1.107-1.473
			c-2.163-4.998-5.516-10.227-6.526-11.762c-0.152-0.231-0.44-0.327-0.701-0.236c-0.371,0.128-0.526,0.568-0.313,0.898
			c1.178,1.826,4.364,6.929,6.385,11.6c0.044,0.1,0.096,0.196,0.144,0.294c0.006,0.017,0.005,0.034,0.013,0.051
			c0.392,0.803,0.416,1.719,0.069,2.578c-0.341,0.845-1.023,1.567-1.871,1.98c-0.764,0.373-1.634,0.451-2.451,0.222
			c-0.958-0.27-1.744-0.928-2.182-1.825l-2.206-4.321c-0.158-0.31-0.537-0.432-0.846-0.274c-0.31,0.158-0.432,0.537-0.274,0.846
			l2.201,4.311c0.557,1.141,1.551,2.009,2.751,2.408c0.072,0.024,0.144,0.046,0.217,0.066c1.114,0.313,2.301,0.206,3.343-0.302
			c1.14-0.556,2.023-1.494,2.485-2.64c0.17-0.42,0.272-0.851,0.313-1.282c1.372,0.934,3.07,1.084,4.534,0.455
			c1.248-0.536,2.19-1.562,2.62-2.864c0.154-0.467,0.222-0.953,0.221-1.44c0.53,0.323,1.066,0.544,1.466,0.677
			c1.012,0.337,2.222,0.243,3.407-0.266c1.158-0.498,2.053-1.417,2.519-2.587C1321.47,1005.566,1321.453,1004.283,1320.955,1003.125
			z"/>
		<path style="fill:#F69D85;" d="M1320.3,1024.217c1.558-3.278,3.936-7.699,3.99-10.508c0.122-6.302-14.383-6.731-10.489-13.401
			c2.109-3.06,5.851-1.207,8.624-0.34c5.723,1.982,12.7,6.259,13.26,12.92c0.594,5.401-0.401,10.489-1.553,15.647
			C1332.176,1041.298,1314.072,1035.409,1320.3,1024.217z"/>
		<path style="fill:#AF5945;" d="M1320.496,1023.977c-0.101-0.034-0.194-0.093-0.267-0.174c-0.028-0.03-2.955-3.165-9.38-4.477
			c-0.344-0.073-0.56-0.402-0.49-0.742c0.07-0.34,0.402-0.56,0.742-0.49c5.13,1.049,8.143,3.171,9.388,4.234
			c1.364-2.977,2.953-6.839,2.932-9.233c-0.021-2.366-2.766-3.787-5.42-5.162c-2.461-1.274-4.786-2.478-5.374-4.509
			c-0.302-1.042-0.09-2.197,0.632-3.432c2.13-3.093,5.665-1.88,8.241-0.995c0.384,0.132,0.757,0.26,1.114,0.371
			c2.271,0.786,4.33,1.571,6.723,3.279c0.283,0.202,0.348,0.594,0.146,0.877c-0.202,0.283-0.596,0.35-0.877,0.147
			c-2.256-1.611-4.227-2.361-6.385-3.108c-0.349-0.109-0.733-0.24-1.128-0.376c-3.047-1.046-5.321-1.626-6.771,0.479
			c-0.523,0.899-0.69,1.7-0.485,2.408c0.439,1.513,2.53,2.596,4.745,3.743c2.846,1.474,6.071,3.144,6.099,6.268
			c0.026,2.866-1.936,7.402-3.414,10.564c-0.089,0.191-0.268,0.324-0.476,0.355
			C1320.689,1024.017,1320.589,1024.008,1320.496,1023.977z"/>
	</g>
	<g id="_x32__7_">
		<path style="fill:#818496;" d="M2002.456,1201.702c0,0-23.056,5.778-38.205,29.728
			C1964.251,1231.431,1997.232,1228.918,2002.456,1201.702z"/>
		<path style="fill:#F69D85;" d="M1951.23,1174.484c7.301-5.676,17.821-4.358,23.496,2.943l65.938,84.822l91.466-68.635
			c0.558-0.416,1.172-0.838,1.776-1.21c11.08-6.832,25.601-3.388,32.433,7.692c6.832,11.08,3.388,25.601-7.692,32.433
			l-111.366,68.669l-0.866,0.535c-7.555,4.624-17.532,2.847-22.986-4.366l-75.279-99.564
			C1942.642,1190.51,1943.992,1180.111,1951.23,1174.484z"/>
		<path style="fill:#F1F3F2;" d="M2159.774,1184.109c0,0-38.498-13.6-113.43,62.216l-43.889-44.623c0,0-11.858,20.787-38.205,29.728
			c0,0,24.047,83.559,67.871,90.935c48.409,8.148,109.784-37.374,109.784-37.374L2159.774,1184.109z"/>
		<path style="fill:#F69D85;" d="M2106.447,1646.337l19.762,194.58c13.172,27.953,69.827,29.568,61.645,0.417l-24.816-205.908
			L2106.447,1646.337z"/>
		<path style="fill:#606A97;" d="M2191.193,1869.744c-0.335,1.262-0.892,2.426-1.629,3.449c-1.827,2.542-4.759,4.203-8.08,4.208
			l-75.962-0.031c-3.781,0.002-6.65-2.183-8.086-5.099c-0.443-0.885-0.749-1.844-0.904-2.833c-0.472-2.965,0.394-6.179,3.004-8.54
			l26.672-19.981c35.138,5.388,61.288-3.328,61.288-3.328l0.796,3.758c1.755,8.281,2.839,16.69,3.241,25.145l0,0
			C2191.588,1867.621,2191.469,1868.712,2191.193,1869.744z"/>
		<path style="fill:#404D7F;" d="M2191.193,1869.744c-1.157,4.393-5.051,7.649-9.709,7.656l-75.962-0.031
			c-4.932-0.001-8.32-3.711-8.989-7.932L2191.193,1869.744z"/>
		<path style="fill:#F69D85;" d="M2245.996,1646.337l37.971,194.58c13.172,27.953,69.827,29.568,61.645,0.417l-43.025-205.908
			L2245.996,1646.337z"/>
		<path style="fill:#606A97;" d="M2348.952,1869.744c-0.335,1.262-0.892,2.426-1.629,3.449c-1.827,2.542-4.759,4.203-8.08,4.208
			l-75.962-0.031c-3.781,0.002-6.65-2.183-8.086-5.099c-0.443-0.885-0.749-1.844-0.904-2.833c-0.472-2.965,0.394-6.179,3.004-8.54
			l26.672-19.981c35.138,5.388,61.288-3.328,61.288-3.328l0.796,3.758c1.755,8.281,2.839,16.69,3.241,25.145l0,0
			C2349.347,1867.621,2349.228,1868.712,2348.952,1869.744z"/>
		<path style="fill:#404D7F;" d="M2348.952,1869.744c-1.157,4.393-5.051,7.649-9.709,7.656l-75.962-0.031
			c-4.932-0.001-8.32-3.711-8.989-7.932L2348.952,1869.744z"/>
		<path style="fill:#FFB12A;" d="M2201.805,1453.02l-9.569,372.796c0,0-35.135,12.896-81.926,3.069l-28.469-381.676
			L2201.805,1453.02z"/>
		<path style="fill:#FFB12A;" d="M2279.067,1456.761c0,0,63.864,285.506,75.953,367.099c0,0-35.135,12.896-81.927,3.069
			l-108.917-375.733L2279.067,1456.761z"/>
		
			<rect x="2149.673" y="1149.329" transform="matrix(0.0484 -0.9988 0.9988 0.0484 907.1453 3289.1465)" style="fill:#F69D85;" width="60.105" height="38.343"/>
		<path style="fill:#D1836B;" d="M2191.733,1169.079c-16.517,7.388-31.471,4.991-31.471,4.991l0.563-11.629L2191.733,1169.079z"/>
		<path style="fill:#2A3047;" d="M2142.475,1106.894c0,0-5.29-10.549-1.798-21.449l12.106,2.848
			C2152.783,1088.293,2145.535,1096.63,2142.475,1106.894z"/>
		<path style="fill:#F69D85;" d="M2173.306,1170.206L2173.306,1170.206c-21.995-3.469-37.013-24.111-33.544-46.106l3.26-20.673
			c3.469-21.995,24.111-37.013,46.106-33.544l0,0c21.995,3.469,37.013,24.111,33.544,46.106l-3.26,20.673
			C2215.942,1158.656,2195.3,1173.674,2173.306,1170.206z"/>
		<path style="fill:#F69D85;" d="M2234.424,1130.859c-0.922,5.843-6.405,9.832-12.248,8.911c-5.843-0.921-9.832-6.405-8.911-12.247
			c0.921-5.843,6.405-9.832,12.248-8.911C2231.356,1119.533,2235.346,1125.016,2234.424,1130.859z"/>
		<path style="fill:#F69D85;" d="M2151.385,1119.141c-0.921,5.843-6.405,9.832-12.247,8.911c-5.843-0.922-9.832-6.405-8.911-12.247
			s6.405-9.832,12.248-8.911C2148.318,1107.815,2152.307,1113.299,2151.385,1119.141z"/>
		<path style="fill:#F69D85;" d="M2169.256,1408.7l-2.324-0.112c-35.374-1.713-62.66-31.778-60.947-67.151l4.75-98.071
			c1.713-35.373,36.145-61.061,67.151-60.947l2.324,0.113c29.538,1.431,62.661,31.778,60.947,67.151l-4.75,98.071
			C2234.694,1383.126,2204.629,1410.413,2169.256,1408.7z"/>
		<path style="fill:#30313C;" d="M2187.737,1117.476c-0.467,2.971,0.382,5.572,1.896,5.81s3.121-1.977,3.588-4.948
			c0.467-2.971-0.382-5.572-1.896-5.81S2188.203,1114.505,2187.737,1117.476z"/>
		<path style="fill:#30313C;" d="M2163.69,1113.695c-0.467,2.971,0.382,5.572,1.896,5.81s3.121-1.977,3.588-4.948
			c0.467-2.971-0.382-5.572-1.896-5.81C2165.763,1108.509,2164.157,1110.724,2163.69,1113.695z"/>
		<path style="fill:#2A3047;" d="M2124.396,1074.122c8.929-13.478,23.199-7.594,33.369-16.21c7.487-6.344,30.244-14.95,44.712-7.877
			c11.442,5.593,15.294,15.437,16.421,23.304c5.75,3.087,11.792,8.79,13.088,19.28c1.529,12.375-9.726,25.978-9.726,25.978
			s-11.794-5.566-16.052-18.853c-2.256-7.04-3.021-12.553-2.997-16.832c-6.171-0.718-13.021-1.218-18.258-0.797
			c-18.61,1.495-19.979,13.67-38.868,16.287C2124.215,1101.431,2118.206,1083.467,2124.396,1074.122z"/>
		<path style="fill:#D1836B;" d="M2203.245,1130.798c0.006,2.152-1.901,3.902-4.259,3.909c-2.359,0.007-4.276-1.732-4.282-3.885
			c-0.006-2.152,1.901-3.902,4.259-3.909S2203.238,1128.646,2203.245,1130.798z"/>
		<path style="fill:#D1836B;" d="M2158.175,1125.484c0.006,2.152-1.901,3.902-4.259,3.909c-2.359,0.007-4.276-1.732-4.282-3.884
			s1.901-3.902,4.259-3.909C2156.252,1121.593,2158.169,1123.332,2158.175,1125.484z"/>
		<path style="fill:#AF5945;" d="M2140.116,1123.76c0.305-0.001,0.571-0.224,0.618-0.534c0.61-4.061-1.996-5.234-3.72-6.011
			c-0.772-0.348-1.501-0.676-1.663-1.109c-0.09-0.24-0.031-0.587,0.174-1.031c1.611-3.495,6.07-3.079,6.26-3.062
			c0.355,0.038,0.652-0.215,0.688-0.559c0.036-0.344-0.213-0.652-0.557-0.688c-0.224-0.025-5.541-0.533-7.531,3.784
			c-0.355,0.771-0.423,1.424-0.209,1.996c0.345,0.922,1.305,1.355,2.323,1.813c1.703,0.767,3.463,1.56,2.995,4.68
			c-0.052,0.343,0.185,0.662,0.527,0.714C2140.053,1123.757,2140.084,1123.76,2140.116,1123.76z"/>
		<path style="fill:#AF5945;" d="M2223.647,1136.223c0.016,0,0.032-0.001,0.049-0.002c0.345-0.028,0.603-0.33,0.575-0.675
			c-0.252-3.146,1.559-3.815,3.31-4.463c1.046-0.387,2.034-0.752,2.442-1.648c0.253-0.557,0.23-1.213-0.072-2.006
			c-1.688-4.446-7.028-4.299-7.252-4.294c-0.346,0.013-0.615,0.303-0.604,0.649c0.012,0.345,0.313,0.612,0.648,0.605
			c0.189-0.006,4.668-0.113,6.034,3.486c0.174,0.458,0.208,0.808,0.103,1.041c-0.191,0.42-0.941,0.698-1.735,0.991
			c-1.774,0.656-4.454,1.647-4.125,5.74C2223.047,1135.975,2223.323,1136.224,2223.647,1136.223z"/>
		<path style="fill:#F1F3F2;" d="M2159.774,1184.109c0,0-43.135,8.141-60.025,58.764c-18.952,56.802-28.365,149.188-18.291,212.228
			c1.563,9.776,41.886,16.712,73.577,18.247c40.963,1.984,108.729-5.417,124.031-16.587c19.417-14.174-15.573-95.717-19.321-138.618
			c-5.117-58.555,0.096-108.758-61.673-132.177C2198.073,1185.967,2166.93,1205.635,2159.774,1184.109z"/>
		<path style="fill:#AF5945;" d="M2177.411,1140.462c2.254-0.006,4.739-0.343,7.35-1.232c0.328-0.112,0.503-0.468,0.391-0.796
			c-0.111-0.328-0.467-0.504-0.796-0.392c-9.521,3.243-17.457-1.407-17.536-1.455c-0.297-0.178-0.682-0.082-0.86,0.216
			c-0.178,0.297-0.082,0.682,0.216,0.86C2166.431,1137.816,2170.981,1140.481,2177.411,1140.462z"/>
		<path style="fill:#AF5945;" d="M2175.525,1133.103c0.242-0.001,0.472-0.142,0.575-0.379c0.137-0.318-0.009-0.687-0.327-0.825
			c-1.396-0.604-4.168-2.246-3.828-3.464c0.473-1.697,4.499-8.976,6.01-11.637c0.171-0.301,0.065-0.684-0.235-0.855
			c-0.301-0.171-0.685-0.065-0.855,0.235c-0.225,0.396-5.517,9.727-6.128,11.92c-0.723,2.596,3.999,4.719,4.54,4.953
			C2175.357,1133.087,2175.442,1133.103,2175.525,1133.103z"/>
		<path style="fill:#AF5945;" d="M2160.654,1105.464c0.145,0,0.292-0.031,0.432-0.094c5.835-2.652,12.763-0.042,12.832-0.016
			c0.542,0.208,1.151-0.061,1.361-0.603c0.209-0.542-0.06-1.15-0.601-1.36c-0.316-0.121-7.808-2.961-14.463,0.063
			c-0.529,0.241-0.763,0.865-0.523,1.394C2159.869,1105.236,2160.253,1105.465,2160.654,1105.464z"/>
		<path style="fill:#AF5945;" d="M2198.916,1111.068c0.306-0.001,0.609-0.135,0.816-0.391c0.365-0.452,0.296-1.114-0.155-1.479
			c-0.257-0.208-6.353-5.088-14.395-4.541c-0.58,0.039-1.018,0.541-0.979,1.121c0.039,0.581,0.553,1.017,1.121,0.979
			c7.173-0.477,12.871,4.032,12.928,4.078C2198.448,1110.992,2198.683,1111.068,2198.916,1111.068z"/>
		<path style="fill:#818496;" d="M2316.733,1446.849c0,0,20.531,9.251,46.569-3.444
			C2363.302,1443.405,2340.395,1430.15,2316.733,1446.849z"/>
		<path style="fill:#F69D85;" d="M2335.819,1450.662c0,0-7.064,15.628-3.335,29.29c3.729,13.662,8.291,18.188,13.821,20.55
			c5.531,2.362,12.843-22.222,10.949-31.453C2355.361,1459.819,2349.44,1449.999,2335.819,1450.662z"/>
		<path style="fill:#F69D85;" d="M2331.987,1455.85c-4.674,9.238-7.526,19.423-8.228,29.756c-0.014,1.326-0.147,3.443-0.053,4.759
			c-0.211,2.633,0.61,6.102,3.916,5.918c3.025-0.063,3.723-3.135,3.791-5.577c1.358-10.064,5.573-19.752,11.381-28.037
			C2349.51,1454.998,2336.183,1446.536,2331.987,1455.85z"/>
		<path style="fill:#F69D85;" d="M2332.409,1480.138c1.756,10.621,1.511,21.679-0.96,32.175c-0.979,3.912,4.974,5.789,6.427,2.059
			c1.789-4.116,3.249-8.456,4.347-12.814c1.844-7.693,3.04-15.613,2.87-23.551
			C2344.508,1468.44,2329.834,1470.892,2332.409,1480.138z"/>
		<path style="fill:#F69D85;" d="M2336.909,1484.566c2.025,6.908,2.835,14.217,2.714,21.419c0.893,4.229-3.889,12.495,1.756,14.052
			c5.822,0.943,6.964-15.499,7.891-19.748c0.707-6.511,0.926-13.164-0.069-19.672
			C2347.391,1470.889,2332.712,1475.593,2336.909,1484.566z"/>
		<path style="fill:#F69D85;" d="M2342.148,1484.679c4.495,9.509,6.247,20.462,4.557,30.878c-0.659,3.971,5.415,5.361,6.563,1.534
			c1.522-4.385,2.514-8.996,2.928-13.633c0.638-8.58-0.019-17.444-2.899-25.611
			C2349.406,1467.777,2334.94,1476.635,2342.148,1484.679z"/>
		<path style="fill:#F69D85;" d="M2346.375,1471.133c5.769,9.247,9.379,20.078,9.797,31c1.195,4.322-3.729,13.737,1.728,15.069
			c7.528,0.806,6.983-22.37,6.447-27.584c-1-8.927-3.319-17.78-7.402-25.817C2352.328,1455.464,2340.174,1463.877,2346.375,1471.133
			z"/>
		<path style="fill:#AF5945;" d="M2340.846,1500.391c0.032-2.551-0.098-5.267-0.553-7.747c-0.063-0.341-0.389-0.566-0.731-0.504
			c-0.34,0.063-0.568,0.386-0.503,0.731c1.355,7.383-0.313,17.319-0.33,17.419c-0.063,0.34,0.171,0.665,0.513,0.723
			c0.342,0.059,0.665-0.17,0.723-0.512C2340.013,1510.221,2340.778,1505.66,2340.846,1500.391z"/>
		<path style="fill:#AF5945;" d="M2348.282,1503.005c0.031-2.44-0.043-5.054-0.349-7.284c-0.048-0.343-0.364-0.583-0.707-0.536
			c-0.343,0.048-0.579,0.365-0.536,0.707c0.82,5.968-0.1,15.112-0.11,15.204c-0.043,0.349,0.216,0.652,0.56,0.688
			c0.344,0.035,0.652-0.215,0.688-0.56C2347.853,1510.982,2348.228,1507.258,2348.282,1503.005z"/>
		<path style="fill:#AF5945;" d="M2356.593,1504.04c0-0.006,0-0.012,0-0.018c-0.004-0.281-0.119-6.964-1.357-11.834
			c-0.085-0.335-0.427-0.538-0.763-0.453s-0.538,0.428-0.453,0.762c1.201,4.726,1.317,11.476,1.318,11.544
			c0.005,0.346,0.291,0.623,0.637,0.618C2356.316,1504.654,2356.589,1504.378,2356.593,1504.04z"/>
		<path style="fill:#F69D85;" d="M2357.483,1461.115l-5.54-124.18c-0.158-3.628-1.398-7.241-3.789-10.331l-0.998-1.29
			l-92.165-119.14c-0.158-0.202-0.385-0.487-0.55-0.685c-8.82-10.609-24.571-12.059-35.179-3.238
			c-10.609,8.82-12.059,24.571-3.239,35.18l92.745,111.55l19.337,115.243c1.213,7.278,7.697,12.671,15.253,12.334
			C2351.524,1476.193,2357.847,1469.279,2357.483,1461.115z"/>
		<path style="fill:#F1F3F2;" d="M2198.073,1185.967c0,0,45.142-2.896,75.809,27.05c30.667,29.946,81.284,88.41,88.244,117.312
			c6.96,28.901,1.176,113.077,1.176,113.077s-23.718-7.087-46.569,3.444l-17.972-92.301c0,0-73.103-76.335-84.344-104.438
			C2203.177,1222.008,2198.073,1185.967,2198.073,1185.967z"/>
		<path style="fill:#F69D85;" d="M1976.423,1184.96c0,0-8.896-14.559-22.22-19.142c-13.323-4.583-19.599-3.366-24.639-0.14
			c-5.039,3.226,11.084,23.004,19.735,26.615C1957.951,1195.904,1969.341,1196.533,1976.423,1184.96z"/>
		<path style="fill:#F69D85;" d="M1977.185,1181.8l-0.414-0.832c-0.133-0.267-0.233-0.445-0.336-0.634
			c-0.105-0.194-0.208-0.379-0.311-0.554c-0.206-0.357-0.411-0.718-0.62-1.058c-0.413-0.696-0.841-1.368-1.27-2.037
			c-0.428-0.67-0.878-1.318-1.316-1.976l-1.366-1.926c-1.856-2.538-3.855-4.96-5.983-7.266c-2.111-2.317-4.408-4.48-6.826-6.492
			l-1.835-1.484l-1.92-1.387l-0.959-0.687l-1.005-0.633l-2.005-1.255c-1.505-0.944-3.515-0.679-4.715,0.705
			c-1.327,1.53-1.163,3.845,0.367,5.172l0.219,0.19l1.539,1.336l0.767,0.662l0.728,0.718l1.449,1.427l0.942,1.039
			c-0.542-0.265-1.086-0.547-1.631-0.828c-1.174-0.618-2.341-1.272-3.5-1.948c-2.318-1.354-4.577-2.831-6.772-4.399
			c-1.111-0.771-2.166-1.605-3.245-2.424l-1.566-1.281l-0.784-0.644l-0.755-0.671c-2.062-1.757-3.933-3.69-5.783-5.668l-0.108-0.117
			c-1.093-1.171-2.9-1.427-4.292-0.527c-1.563,1.011-2.011,3.097-1,4.661c1.621,2.506,3.313,5,5.212,7.31l0.699,0.882l0.728,0.853
			l0.512,0.596c-0.165-0.114-0.329-0.228-0.495-0.343l-1.647-1.219l-0.825-0.613l-0.797-0.641c-2.172-1.675-4.165-3.531-6.138-5.433
			l-0.111-0.108c-1.154-1.114-2.975-1.275-4.319-0.3c-1.507,1.094-1.841,3.201-0.748,4.708c1.769,2.437,3.607,4.857,5.637,7.085
			l0.715,0.813l-0.566-0.356l-1.693-1.196l-0.85-0.602l-0.804-0.648l-1.618-1.304l-0.205-0.165c-1.252-1.01-3.086-1.003-4.333,0.096
			c-1.394,1.228-1.528,3.354-0.3,4.747l1.57,1.783l0.792,0.892l0.837,0.84l1.688,1.679l1.767,1.584
			c0.947,0.823,1.92,1.618,2.906,2.395l-1.465-0.953l-1.039-0.676l-0.974-0.754l-1.965-1.512l-0.251-0.194
			c-1.302-1.004-3.178-0.925-4.391,0.255c-1.329,1.294-1.358,3.42-0.065,4.75l1.99,2.045l1.003,1.025l1.071,0.942l2.161,1.881
			l2.283,1.721c0.385,0.281,0.759,0.586,1.155,0.849l1.194,0.782c0.802,0.51,1.587,1.07,2.413,1.539l2.483,1.418
			c0.83,0.474,1.692,0.867,2.54,1.304c3.418,1.68,6.956,3.113,10.588,4.281l2.744,0.827c0.927,0.242,1.846,0.511,2.786,0.729
			c0.936,0.226,1.879,0.444,2.841,0.632c0.473,0.103,0.971,0.186,1.461,0.275c0.241,0.045,0.496,0.087,0.759,0.125
			c0.257,0.039,0.504,0.079,0.861,0.119l0.826,0.091c0.453,0.047,0.917,0.046,1.388-0.008c3.527-0.4,6.063-3.584,5.663-7.111
			c-0.4-3.527-3.584-6.063-7.111-5.663c-0.08,0.009-0.252,0.008-0.423,0.006c0.26-0.638,0.426-1.325,0.469-2.051
			c0.043-0.729-0.042-1.435-0.227-2.101c0.095-0.214,0.179-0.434,0.251-0.662c2.989,0.308,5.88-1.514,6.812-4.492
			c0.08-0.257,0.139-0.516,0.186-0.775c1.226,1.902,2.371,3.857,3.409,5.862l0.913,1.826c0.284,0.616,0.583,1.226,0.853,1.842
			c0.272,0.616,0.542,1.23,0.787,1.842c0.13,0.308,0.242,0.607,0.358,0.907c0.061,0.153,0.115,0.298,0.162,0.437
			c0.051,0.142,0.107,0.295,0.122,0.363c0.111,0.498,0.29,1.024,0.527,1.501c1.585,3.188,5.454,4.488,8.642,2.903
			C1977.47,1188.858,1978.77,1184.988,1977.185,1181.8z"/>
		<path style="fill:#AF5945;" d="M1934.948,1184.417c-0.04-0.008-0.08-0.02-0.12-0.037c-7.911-3.316-14.404-9.139-14.469-9.197
			c-0.256-0.231-0.276-0.625-0.045-0.881c0.232-0.255,0.625-0.275,0.882-0.045c0.063,0.057,6.406,5.741,14.115,8.973
			c0.318,0.133,0.467,0.499,0.334,0.817C1935.528,1184.325,1935.233,1184.474,1934.948,1184.417z"/>
		<path style="fill:#AF5945;" d="M1936.037,1176.335c-0.075-0.015-0.149-0.044-0.217-0.088
			c-8.558-5.541-14.389-11.443-14.446-11.502c-0.242-0.246-0.238-0.641,0.008-0.882c0.247-0.241,0.641-0.237,0.883,0.008
			c0.057,0.058,5.798,5.866,14.234,11.329c0.29,0.187,0.372,0.574,0.185,0.863
			C1936.541,1176.283,1936.281,1176.383,1936.037,1176.335z"/>
		<path style="fill:#AF5945;" d="M1941.95,1171.207c-0.078-0.016-0.155-0.047-0.225-0.094c-5.299-3.551-11.077-9.752-11.321-10.014
			c-0.234-0.253-0.219-0.647,0.033-0.882c0.253-0.234,0.646-0.221,0.882,0.033c0.058,0.063,5.924,6.357,11.101,9.826
			c0.286,0.192,0.363,0.58,0.171,0.866C1942.446,1171.158,1942.19,1171.254,1941.95,1171.207z"/>
		<path style="fill:#AF5945;" d="M1948.721,1182.861c-0.187-0.037-0.355-0.16-0.442-0.345c-0.147-0.312-0.014-0.684,0.297-0.831
			c2.656-1.257,6.103-1.458,7.951-1.465c-2.646-3.924-3.526-9.038-3.565-9.273c-0.057-0.34,0.173-0.661,0.513-0.718
			c0.338-0.058,0.661,0.172,0.719,0.512c0.01,0.06,1.036,6.009,4.076,9.738c0.157,0.193,0.185,0.459,0.071,0.68
			c-0.113,0.221-0.347,0.353-0.595,0.337c-0.051-0.003-5.198-0.31-8.637,1.316
			C1948.983,1182.873,1948.848,1182.886,1948.721,1182.861z"/>
		<path style="fill:#30313C;" d="M2160.262,1177.103l-14.539,6.427l12.452,25.38l11.674-9.464l5.679,12.254l32.035-25.619
			l-9.115-7.851c0,0-13.262,11.928-27.16,10.224C2162.367,1187.36,2160.262,1177.103,2160.262,1177.103z"/>
		<path style="fill:#818496;" d="M2259.167,1311.665c0.16,0,0.32-0.056,0.45-0.169c0.283-0.249,0.312-0.68,0.064-0.964
			c-0.304-0.347-30.551-34.965-43.256-57.615c-0.185-0.329-0.601-0.446-0.93-0.262c-0.329,0.185-0.446,0.601-0.261,0.93
			c12.776,22.775,43.115,57.499,43.419,57.847C2258.788,1311.587,2258.978,1311.665,2259.167,1311.665z"/>
		<path style="fill:#818496;" d="M2083.338,1316.552c0.337,0,0.63-0.25,0.676-0.594c0.046-0.345,4.704-34.983,16.388-72.884
			c0.111-0.36-0.091-0.742-0.452-0.853c-0.358-0.108-0.742,0.092-0.854,0.452c-11.719,38.015-16.391,72.76-16.436,73.107
			c-0.05,0.374,0.213,0.717,0.587,0.766C2083.278,1316.55,2083.308,1316.552,2083.338,1316.552z"/>
		<path style="fill:#818496;" d="M2036.271,1258.931c0.227,0,0.447-0.112,0.578-0.317c3.403-5.369,9.908-11.736,9.973-11.799
			c0.27-0.263,0.276-0.696,0.012-0.965c-0.264-0.269-0.696-0.276-0.966-0.012c-0.271,0.264-6.684,6.54-10.174,12.046
			c-0.202,0.318-0.107,0.74,0.212,0.942C2036.019,1258.896,2036.146,1258.931,2036.271,1258.931z"/>
		<path style="fill:#818496;" d="M2315.092,1439.098c0.112,0,0.227-0.028,0.332-0.086c25.07-13.981,47.959-4.582,48.187-4.486
			c0.351,0.148,0.749-0.016,0.895-0.362c0.147-0.347-0.015-0.748-0.362-0.895c-0.236-0.099-23.716-9.765-49.385,4.55
			c-0.33,0.184-0.447,0.6-0.264,0.929C2314.62,1438.972,2314.852,1439.098,2315.092,1439.098z"/>
		<path style="fill:#818496;" d="M1968.061,1243.556c0.066,0,0.133-0.009,0.198-0.029c34.214-10.389,43.679-32.249,43.771-32.469
			c0.145-0.348-0.019-0.747-0.367-0.893c-0.348-0.143-0.748,0.019-0.894,0.366c-0.089,0.214-9.35,21.499-42.906,31.688
			c-0.361,0.11-0.565,0.491-0.455,0.852C1967.498,1243.366,1967.768,1243.556,1968.061,1243.556z"/>
		<path style="fill:#997243;" d="M2198.073,1568.811c0.062,0,0.126-0.008,0.19-0.027c0.362-0.105,0.571-0.484,0.466-0.846
			l-18.398-63.469c-0.106-0.361-0.478-0.573-0.846-0.465c-0.362,0.105-0.571,0.484-0.466,0.846l18.398,63.469
			C2197.504,1568.617,2197.777,1568.811,2198.073,1568.811z"/>
		<path style="fill:#997243;" d="M2331.396,1811.736c0.046,0,0.093-0.004,0.14-0.014c0.369-0.076,0.606-0.438,0.53-0.807
			l-71.798-346.86c-0.076-0.37-0.436-0.609-0.807-0.53c-0.369,0.077-0.606,0.438-0.53,0.807l71.798,346.861
			C2330.795,1811.515,2331.08,1811.736,2331.396,1811.736z"/>
		<path style="fill:#818496;" d="M2171.611,1454.083c15.674,0,30.405-0.983,43.171-2.314c40.118-4.183,69.994-12.612,70.291-12.697
			c0.363-0.103,0.573-0.481,0.47-0.844c-0.104-0.362-0.481-0.573-0.844-0.469c-0.297,0.084-30.078,8.486-70.085,12.655
			c-36.89,3.845-90.267,4.772-135.059-12.635c-0.349-0.135-0.747,0.038-0.884,0.39c-0.136,0.351,0.037,0.747,0.389,0.884
			C2108.59,1450.527,2141.801,1454.083,2171.611,1454.083z"/>
		<path style="fill:#818496;" d="M2172.817,1435.128c15.674,0,30.198-0.91,42.685-2.142c39.24-3.873,67.345-11.68,67.625-11.758
			c0.363-0.102,0.574-0.479,0.472-0.842c-0.101-0.362-0.473-0.577-0.842-0.473c-0.278,0.078-28.291,7.857-67.417,11.717
			c-36.089,3.558-89.283,4.418-137.764-11.707c-0.356-0.12-0.744,0.075-0.863,0.432c-0.119,0.358,0.075,0.745,0.433,0.863
			C2109.072,1431.837,2143.017,1435.128,2172.817,1435.128z"/>
		<path style="fill:#818496;" d="M2312.971,1428.208c0.12,0,0.243-0.032,0.353-0.099c23.014-13.954,50.589-4.345,50.866-4.246
			c0.358,0.127,0.746-0.057,0.873-0.413c0.127-0.355-0.058-0.746-0.412-0.873c-0.282-0.101-28.474-9.923-52.034,4.364
			c-0.323,0.195-0.426,0.615-0.23,0.938C2312.515,1428.091,2312.74,1428.208,2312.971,1428.208z"/>
		<path style="fill:#818496;" d="M1972.061,1253.934c0.034,0,0.067-0.002,0.101-0.008c33.162-4.914,47.755-34.356,47.898-34.653
			c0.165-0.34,0.022-0.748-0.317-0.912c-0.339-0.165-0.748-0.022-0.911,0.317c-0.141,0.29-14.438,29.091-46.87,33.897
			c-0.372,0.055-0.63,0.402-0.575,0.775C1971.437,1253.691,1971.729,1253.934,1972.061,1253.934z"/>
		<path style="fill:#997243;" d="M2143.646,1815.645c-21.306,0-34.578-3.127-34.793-3.18c-0.402-0.098-0.649-0.503-0.552-0.905
			s0.503-0.65,0.905-0.552c0.349,0.083,35.371,8.323,83.286-2.233c0.396-0.089,0.804,0.165,0.894,0.571
			c0.089,0.404-0.167,0.805-0.571,0.894C2174.035,1814.376,2157.212,1815.645,2143.646,1815.645z"/>
		<path style="fill:#997243;" d="M2298.312,1814.302c-17.05,0-29.329-1.313-29.564-1.34c-0.412-0.045-0.709-0.416-0.663-0.827
			c0.045-0.411,0.432-0.712,0.827-0.663c0.452,0.049,45.739,4.888,83.382-4.193c0.394-0.095,0.808,0.15,0.905,0.554
			c0.097,0.402-0.151,0.808-0.554,0.905C2334.337,1813.154,2314.242,1814.302,2298.312,1814.302z"/>
	</g>
	<path id="_x31_" style="fill:#30313C;" d="M2654.437,1882.382H145.564c-1.933,0-3.5-1.566-3.5-3.5s1.567-3.5,3.5-3.5h2508.873
		c1.933,0,3.5,1.566,3.5,3.5S2656.369,1882.382,2654.437,1882.382z"/>
</g>
</svg>
